<mxfile host="app.diagrams.net" modified="2023-10-28T10:47:14.199Z" agent="Mozilla/5.0 (Windows NT 10.0; Win64; x64) AppleWebKit/537.36 (KHTML, like Gecko) Chrome/118.0.0.0 Safari/537.36 Edg/118.0.2088.69" etag="X7iBvdS2lkgji9YcqBlw" version="21.6.8" type="google">
  <diagram id="C5RBs43oDa-KdzZeNtuy" name="Page-1">
    <mxGraphModel grid="1" page="1" gridSize="10" guides="1" tooltips="1" connect="1" arrows="1" fold="1" pageScale="1" pageWidth="827" pageHeight="1169" math="0" shadow="0">
      <root>
        <mxCell id="WIyWlLk6GJQsqaUBKTNV-0" />
        <mxCell id="WIyWlLk6GJQsqaUBKTNV-1" parent="WIyWlLk6GJQsqaUBKTNV-0" />
        <mxCell id="U6saIIwCPVE9olRDu_qW-1" value="Start" style="html=1;overflow=block;blockSpacing=1;whiteSpace=wrap;fontSize=16.7;fontColor=#3a414a;spacing=3.8;strokeColor=#3a414a;strokeOpacity=100;rounded=1;absoluteArcSize=1;arcSize=9;strokeWidth=0.8;lucidId=L_PfGfUcAtiz;" vertex="1" parent="WIyWlLk6GJQsqaUBKTNV-1">
          <mxGeometry x="421" y="242" width="120" height="60" as="geometry" />
        </mxCell>
        <mxCell id="U6saIIwCPVE9olRDu_qW-2" value="WIL CO-ordinator" style="html=1;overflow=block;blockSpacing=1;whiteSpace=wrap;fontSize=21.7;fontColor=#3a414a;fontStyle=1;spacing=3.8;strokeOpacity=0;fillOpacity=0;rounded=1;absoluteArcSize=1;arcSize=9;fillColor=#ffffff;strokeWidth=0.8;lucidId=T_Pf0_t0Ftxc;" vertex="1" parent="WIyWlLk6GJQsqaUBKTNV-1">
          <mxGeometry x="391" y="160" width="180" height="60" as="geometry" />
        </mxCell>
        <mxCell id="U6saIIwCPVE9olRDu_qW-3" value="Faculty Login/Signup" style="html=1;overflow=block;blockSpacing=1;whiteSpace=wrap;fontSize=16.7;fontColor=#3a414a;spacing=9;strokeColor=#3a414a;strokeOpacity=100;rounded=1;absoluteArcSize=1;arcSize=9;strokeWidth=0.8;lucidId=L~PfDe9R9lB8;" vertex="1" parent="WIyWlLk6GJQsqaUBKTNV-1">
          <mxGeometry x="421" y="347" width="120" height="90" as="geometry" />
        </mxCell>
        <mxCell id="U6saIIwCPVE9olRDu_qW-4" value="" style="html=1;jettySize=18;whiteSpace=wrap;fontSize=13;strokeColor=#3a414a;strokeOpacity=100;strokeWidth=0.8;rounded=1;arcSize=12;edgeStyle=orthogonalEdgeStyle;startArrow=none;endArrow=block;endFill=1;exitX=0.5;exitY=1.006;exitPerimeter=0;entryX=0.5;entryY=-0.004;entryPerimeter=0;lucidId=_bQfkE37j9wG;" edge="1" parent="WIyWlLk6GJQsqaUBKTNV-1" source="U6saIIwCPVE9olRDu_qW-1" target="U6saIIwCPVE9olRDu_qW-3">
          <mxGeometry width="100" height="100" relative="1" as="geometry">
            <Array as="points" />
          </mxGeometry>
        </mxCell>
        <mxCell id="U6saIIwCPVE9olRDu_qW-5" value="Approved" style="html=1;overflow=block;blockSpacing=1;whiteSpace=wrap;rhombus;fontSize=16.7;fontColor=#3a414a;spacing=3.8;strokeColor=#3a414a;strokeOpacity=100;rounded=1;absoluteArcSize=1;arcSize=9;strokeWidth=0.8;lucidId=bcQfmgpiGojZ;" vertex="1" parent="WIyWlLk6GJQsqaUBKTNV-1">
          <mxGeometry x="256" y="437" width="120" height="90" as="geometry" />
        </mxCell>
        <mxCell id="U6saIIwCPVE9olRDu_qW-6" value="Be able to grant access to companies" style="html=1;overflow=block;blockSpacing=1;whiteSpace=wrap;fontSize=16.7;fontColor=#3a414a;spacing=9;strokeColor=#3a414a;strokeOpacity=100;rounded=1;absoluteArcSize=1;arcSize=9;strokeWidth=0.8;lucidId=rdQfPrtrtaH~;" vertex="1" parent="WIyWlLk6GJQsqaUBKTNV-1">
          <mxGeometry x="421" y="630" width="120" height="90" as="geometry" />
        </mxCell>
        <mxCell id="U6saIIwCPVE9olRDu_qW-7" value="" style="html=1;jettySize=18;whiteSpace=wrap;fontSize=13;strokeColor=#3a414a;strokeOpacity=100;strokeWidth=0.8;rounded=1;arcSize=12;edgeStyle=orthogonalEdgeStyle;startArrow=none;endArrow=block;endFill=1;exitX=0.5;exitY=1.004;exitPerimeter=0;entryX=1;entryY=0.5;lucidId=xdQfAJ7I3ekc;entryDx=0;entryDy=0;" edge="1" parent="WIyWlLk6GJQsqaUBKTNV-1" source="U6saIIwCPVE9olRDu_qW-3" target="U6saIIwCPVE9olRDu_qW-5">
          <mxGeometry width="100" height="100" relative="1" as="geometry">
            <Array as="points" />
            <mxPoint x="374.0799999999999" y="482" as="targetPoint" />
          </mxGeometry>
        </mxCell>
        <mxCell id="U6saIIwCPVE9olRDu_qW-8" value="" style="html=1;jettySize=18;whiteSpace=wrap;fontSize=13.3;fontColor=#333333;fontStyle=1;strokeColor=#3a414a;strokeOpacity=100;strokeWidth=0.8;rounded=1;arcSize=12;edgeStyle=orthogonalEdgeStyle;startArrow=none;endArrow=block;endFill=1;exitX=0.5;exitY=0.988;exitPerimeter=0;entryX=0;entryY=0.5;lucidId=BdQfq.R1PTU8;entryDx=0;entryDy=0;" edge="1" parent="WIyWlLk6GJQsqaUBKTNV-1" target="ftR3uuFMRVhOYxYMTQK5-48">
          <mxGeometry width="100" height="100" relative="1" as="geometry">
            <Array as="points" />
            <mxPoint x="316" y="525.9200000000001" as="sourcePoint" />
          </mxGeometry>
        </mxCell>
        <mxCell id="U6saIIwCPVE9olRDu_qW-9" value="Yes" style="text;html=1;resizable=0;labelBackgroundColor=default;align=center;verticalAlign=middle;fontStyle=1;fontColor=#333333;fontSize=13.3;" vertex="1" parent="U6saIIwCPVE9olRDu_qW-8">
          <mxGeometry relative="1" as="geometry" />
        </mxCell>
        <mxCell id="U6saIIwCPVE9olRDu_qW-10" value="" style="html=1;jettySize=18;whiteSpace=wrap;fontSize=13.3;fontColor=#333333;fontStyle=1;strokeColor=#3a414a;strokeOpacity=100;strokeWidth=0.8;rounded=1;arcSize=12;edgeStyle=orthogonalEdgeStyle;startArrow=none;endArrow=block;endFill=1;exitX=0.5;exitY=0.012;exitPerimeter=0;entryX=-0.003;entryY=0.5;entryPerimeter=0;lucidId=EdQfa8SaANSN;" edge="1" parent="WIyWlLk6GJQsqaUBKTNV-1" target="U6saIIwCPVE9olRDu_qW-3">
          <mxGeometry width="100" height="100" relative="1" as="geometry">
            <Array as="points" />
            <mxPoint x="316" y="438.0799999999999" as="sourcePoint" />
          </mxGeometry>
        </mxCell>
        <mxCell id="U6saIIwCPVE9olRDu_qW-11" value="No" style="text;html=1;resizable=0;labelBackgroundColor=default;align=center;verticalAlign=middle;fontStyle=1;fontColor=#333333;fontSize=13.3;" vertex="1" parent="U6saIIwCPVE9olRDu_qW-10">
          <mxGeometry relative="1" as="geometry" />
        </mxCell>
        <mxCell id="U6saIIwCPVE9olRDu_qW-12" value=" View Company details" style="html=1;overflow=block;blockSpacing=1;whiteSpace=wrap;fontSize=16.7;fontColor=#3a414a;spacing=9;strokeColor=#3a414a;strokeOpacity=100;rounded=1;absoluteArcSize=1;arcSize=9;strokeWidth=0.8;lucidId=lfQfoQvsOEnL;" vertex="1" parent="WIyWlLk6GJQsqaUBKTNV-1">
          <mxGeometry x="421" y="750" width="120" height="90" as="geometry" />
        </mxCell>
        <mxCell id="U6saIIwCPVE9olRDu_qW-13" value="" style="html=1;jettySize=18;whiteSpace=wrap;fontSize=13;strokeColor=#3a414a;strokeOpacity=100;strokeWidth=0.8;rounded=1;arcSize=12;edgeStyle=orthogonalEdgeStyle;startArrow=none;endArrow=block;endFill=1;exitX=0.5;exitY=1.004;exitPerimeter=0;entryX=0.5;entryY=-0.004;entryPerimeter=0;lucidId=~gQfyxcjnXyO;" edge="1" parent="WIyWlLk6GJQsqaUBKTNV-1" source="U6saIIwCPVE9olRDu_qW-6" target="U6saIIwCPVE9olRDu_qW-12">
          <mxGeometry width="100" height="100" relative="1" as="geometry">
            <Array as="points" />
          </mxGeometry>
        </mxCell>
        <mxCell id="U6saIIwCPVE9olRDu_qW-14" value="View Graduate Details" style="html=1;overflow=block;blockSpacing=1;whiteSpace=wrap;fontSize=16.7;fontColor=#3a414a;spacing=9;strokeColor=#3a414a;strokeOpacity=100;rounded=1;absoluteArcSize=1;arcSize=9;strokeWidth=0.8;lucidId=xhQfMc_Smesb;" vertex="1" parent="WIyWlLk6GJQsqaUBKTNV-1">
          <mxGeometry x="421" y="870" width="120" height="90" as="geometry" />
        </mxCell>
        <mxCell id="U6saIIwCPVE9olRDu_qW-15" value="View Graduate CV" style="html=1;overflow=block;blockSpacing=1;whiteSpace=wrap;fontSize=16.7;fontColor=#3a414a;spacing=9;strokeColor=#3a414a;strokeOpacity=100;rounded=1;absoluteArcSize=1;arcSize=9;strokeWidth=0.8;lucidId=UhQfLf45Eroh;" vertex="1" parent="WIyWlLk6GJQsqaUBKTNV-1">
          <mxGeometry x="421" y="990" width="120" height="90" as="geometry" />
        </mxCell>
        <mxCell id="U6saIIwCPVE9olRDu_qW-16" value="View Graduate demographic details" style="html=1;overflow=block;blockSpacing=1;whiteSpace=wrap;fontSize=16.7;fontColor=#3a414a;spacing=9;strokeColor=#3a414a;strokeOpacity=100;rounded=1;absoluteArcSize=1;arcSize=9;strokeWidth=0.8;lucidId=5hQfKXcPo8DL;" vertex="1" parent="WIyWlLk6GJQsqaUBKTNV-1">
          <mxGeometry x="421" y="1110" width="120" height="98" as="geometry" />
        </mxCell>
        <mxCell id="U6saIIwCPVE9olRDu_qW-17" value="" style="html=1;jettySize=18;whiteSpace=wrap;fontSize=13;strokeColor=#3a414a;strokeOpacity=100;strokeWidth=0.8;rounded=1;arcSize=12;edgeStyle=orthogonalEdgeStyle;startArrow=none;endArrow=block;endFill=1;exitX=0.5;exitY=1.004;exitPerimeter=0;entryX=0.5;entryY=-0.004;entryPerimeter=0;lucidId=DiQfVicDHvhn;" edge="1" parent="WIyWlLk6GJQsqaUBKTNV-1" source="U6saIIwCPVE9olRDu_qW-12" target="U6saIIwCPVE9olRDu_qW-14">
          <mxGeometry width="100" height="100" relative="1" as="geometry">
            <Array as="points" />
          </mxGeometry>
        </mxCell>
        <mxCell id="U6saIIwCPVE9olRDu_qW-18" value="" style="html=1;jettySize=18;whiteSpace=wrap;fontSize=13;strokeColor=#3a414a;strokeOpacity=100;strokeWidth=0.8;rounded=1;arcSize=12;edgeStyle=orthogonalEdgeStyle;startArrow=none;endArrow=block;endFill=1;exitX=0.5;exitY=1.004;exitPerimeter=0;entryX=0.5;entryY=-0.004;entryPerimeter=0;lucidId=FiQfJxObFJNJ;" edge="1" parent="WIyWlLk6GJQsqaUBKTNV-1" source="U6saIIwCPVE9olRDu_qW-14" target="U6saIIwCPVE9olRDu_qW-15">
          <mxGeometry width="100" height="100" relative="1" as="geometry">
            <Array as="points" />
          </mxGeometry>
        </mxCell>
        <mxCell id="U6saIIwCPVE9olRDu_qW-19" value="" style="html=1;jettySize=18;whiteSpace=wrap;fontSize=13;strokeColor=#3a414a;strokeOpacity=100;strokeWidth=0.8;rounded=1;arcSize=12;edgeStyle=orthogonalEdgeStyle;startArrow=none;endArrow=block;endFill=1;exitX=0.5;exitY=1.004;exitPerimeter=0;entryX=0.5;entryY=-0.004;entryPerimeter=0;lucidId=GiQfgMImzv8H;" edge="1" parent="WIyWlLk6GJQsqaUBKTNV-1" source="U6saIIwCPVE9olRDu_qW-15" target="U6saIIwCPVE9olRDu_qW-16">
          <mxGeometry width="100" height="100" relative="1" as="geometry">
            <Array as="points" />
          </mxGeometry>
        </mxCell>
        <mxCell id="U6saIIwCPVE9olRDu_qW-20" value="Remove Companies" style="html=1;overflow=block;blockSpacing=1;whiteSpace=wrap;fontSize=16.7;fontColor=#3a414a;spacing=9;strokeColor=#3a414a;strokeOpacity=100;rounded=1;absoluteArcSize=1;arcSize=9;strokeWidth=0.8;lucidId=1iQfHO6DTLJr;" vertex="1" parent="WIyWlLk6GJQsqaUBKTNV-1">
          <mxGeometry x="421" y="1238" width="120" height="90" as="geometry" />
        </mxCell>
        <mxCell id="U6saIIwCPVE9olRDu_qW-21" value="" style="html=1;jettySize=18;whiteSpace=wrap;fontSize=13;strokeColor=#3a414a;strokeOpacity=100;strokeWidth=0.8;rounded=1;arcSize=12;edgeStyle=orthogonalEdgeStyle;startArrow=none;endArrow=block;endFill=1;exitX=0.5;exitY=1.004;exitPerimeter=0;entryX=0.5;entryY=-0.004;entryPerimeter=0;lucidId=NjQff~8s8CUB;" edge="1" parent="WIyWlLk6GJQsqaUBKTNV-1" source="U6saIIwCPVE9olRDu_qW-16" target="U6saIIwCPVE9olRDu_qW-20">
          <mxGeometry width="100" height="100" relative="1" as="geometry">
            <Array as="points" />
          </mxGeometry>
        </mxCell>
        <mxCell id="U6saIIwCPVE9olRDu_qW-22" value="End" style="html=1;overflow=block;blockSpacing=1;whiteSpace=wrap;fontSize=16.7;fontColor=#3a414a;spacing=3.8;strokeColor=#3a414a;strokeOpacity=100;rounded=1;absoluteArcSize=1;arcSize=9;strokeWidth=0.8;lucidId=SjQflWG~FcCZ;" vertex="1" parent="WIyWlLk6GJQsqaUBKTNV-1">
          <mxGeometry x="421" y="1431" width="120" height="60" as="geometry" />
        </mxCell>
        <mxCell id="U6saIIwCPVE9olRDu_qW-23" value="" style="html=1;jettySize=18;whiteSpace=wrap;fontSize=13;strokeColor=#3a414a;strokeOpacity=100;strokeWidth=0.8;rounded=1;arcSize=12;edgeStyle=orthogonalEdgeStyle;startArrow=none;endArrow=block;endFill=1;exitX=0.5;exitY=1.004;exitPerimeter=0;entryX=1;entryY=0.5;lucidId=YjQf9az5FXyI;entryDx=0;entryDy=0;" edge="1" parent="WIyWlLk6GJQsqaUBKTNV-1" source="U6saIIwCPVE9olRDu_qW-20" target="ftR3uuFMRVhOYxYMTQK5-31">
          <mxGeometry width="100" height="100" relative="1" as="geometry">
            <Array as="points" />
          </mxGeometry>
        </mxCell>
        <mxCell id="U6saIIwCPVE9olRDu_qW-61" value="Start" style="html=1;overflow=block;blockSpacing=1;whiteSpace=wrap;fontSize=16.7;fontColor=#3a414a;spacing=3.8;strokeColor=#3a414a;strokeOpacity=100;rounded=1;absoluteArcSize=1;arcSize=9;strokeWidth=0.8;lucidId=AVRfghsbqk31;" vertex="1" parent="WIyWlLk6GJQsqaUBKTNV-1">
          <mxGeometry x="-150" y="232" width="120" height="60" as="geometry" />
        </mxCell>
        <mxCell id="U6saIIwCPVE9olRDu_qW-62" value="Recruitement Administrator" style="html=1;overflow=block;blockSpacing=1;whiteSpace=wrap;fontSize=21.7;fontColor=#3a414a;fontStyle=1;spacing=3.8;strokeOpacity=0;fillOpacity=0;rounded=1;absoluteArcSize=1;arcSize=9;fillColor=#ffffff;strokeWidth=0.8;lucidId=AVRfY3W0IRmu;" vertex="1" parent="WIyWlLk6GJQsqaUBKTNV-1">
          <mxGeometry x="-180" y="150" width="180" height="60" as="geometry" />
        </mxCell>
        <mxCell id="U6saIIwCPVE9olRDu_qW-63" value="Admin Login/Signup" style="html=1;overflow=block;blockSpacing=1;whiteSpace=wrap;fontSize=16.7;fontColor=#3a414a;spacing=9;strokeColor=#3a414a;strokeOpacity=100;rounded=1;absoluteArcSize=1;arcSize=9;strokeWidth=0.8;lucidId=AVRfQ1nAAmd4;" vertex="1" parent="WIyWlLk6GJQsqaUBKTNV-1">
          <mxGeometry x="-150" y="337" width="120" height="90" as="geometry" />
        </mxCell>
        <mxCell id="U6saIIwCPVE9olRDu_qW-64" value="" style="html=1;jettySize=18;whiteSpace=wrap;fontSize=13;strokeColor=#3a414a;strokeOpacity=100;strokeWidth=0.8;rounded=1;arcSize=12;edgeStyle=orthogonalEdgeStyle;startArrow=none;endArrow=block;endFill=1;exitX=0.5;exitY=1.006;exitPerimeter=0;entryX=0.5;entryY=-0.004;entryPerimeter=0;lucidId=AVRfXI.0c~Y9;" edge="1" parent="WIyWlLk6GJQsqaUBKTNV-1" source="U6saIIwCPVE9olRDu_qW-61" target="U6saIIwCPVE9olRDu_qW-63">
          <mxGeometry width="100" height="100" relative="1" as="geometry">
            <Array as="points" />
          </mxGeometry>
        </mxCell>
        <mxCell id="U6saIIwCPVE9olRDu_qW-65" value="Approved" style="html=1;overflow=block;blockSpacing=1;whiteSpace=wrap;rhombus;fontSize=16.7;fontColor=#3a414a;spacing=3.8;strokeColor=#3a414a;strokeOpacity=100;rounded=1;absoluteArcSize=1;arcSize=9;strokeWidth=0.8;lucidId=AVRfMROqgQOq;" vertex="1" parent="WIyWlLk6GJQsqaUBKTNV-1">
          <mxGeometry x="-360" y="420" width="120" height="90" as="geometry" />
        </mxCell>
        <mxCell id="U6saIIwCPVE9olRDu_qW-66" value="" style="html=1;jettySize=18;whiteSpace=wrap;fontSize=13;strokeColor=#3a414a;strokeOpacity=100;strokeWidth=0.8;rounded=1;arcSize=12;edgeStyle=orthogonalEdgeStyle;startArrow=none;endArrow=block;endFill=1;exitX=0.5;exitY=1.004;exitPerimeter=0;entryX=0.984;entryY=0.5;entryPerimeter=0;lucidId=AVRfw~7tKqmD;" edge="1" parent="WIyWlLk6GJQsqaUBKTNV-1" source="U6saIIwCPVE9olRDu_qW-63" target="U6saIIwCPVE9olRDu_qW-65">
          <mxGeometry width="100" height="100" relative="1" as="geometry">
            <Array as="points" />
          </mxGeometry>
        </mxCell>
        <mxCell id="U6saIIwCPVE9olRDu_qW-67" value="" style="html=1;jettySize=18;whiteSpace=wrap;fontSize=13.3;fontColor=#333333;fontStyle=1;strokeColor=#3a414a;strokeOpacity=100;strokeWidth=0.8;rounded=1;arcSize=12;edgeStyle=orthogonalEdgeStyle;startArrow=none;endArrow=block;endFill=1;exitX=0.5;exitY=0.988;exitPerimeter=0;entryX=-0.003;entryY=0.5;entryPerimeter=0;lucidId=AVRfyyyRTdF2;" edge="1" parent="WIyWlLk6GJQsqaUBKTNV-1" source="U6saIIwCPVE9olRDu_qW-65" target="U6saIIwCPVE9olRDu_qW-84">
          <mxGeometry width="100" height="100" relative="1" as="geometry">
            <Array as="points" />
          </mxGeometry>
        </mxCell>
        <mxCell id="U6saIIwCPVE9olRDu_qW-68" value="Yes" style="text;html=1;resizable=0;labelBackgroundColor=default;align=center;verticalAlign=middle;fontStyle=1;fontColor=#333333;fontSize=13.3;" vertex="1" parent="U6saIIwCPVE9olRDu_qW-67">
          <mxGeometry relative="1" as="geometry" />
        </mxCell>
        <mxCell id="U6saIIwCPVE9olRDu_qW-69" value="" style="html=1;jettySize=18;whiteSpace=wrap;fontSize=13.3;fontColor=#333333;fontStyle=1;strokeColor=#3a414a;strokeOpacity=100;strokeWidth=0.8;rounded=1;arcSize=12;edgeStyle=orthogonalEdgeStyle;startArrow=none;endArrow=block;endFill=1;exitX=0.5;exitY=0.012;exitPerimeter=0;entryX=-0.003;entryY=0.5;entryPerimeter=0;lucidId=AVRfolYr9bJ6;" edge="1" parent="WIyWlLk6GJQsqaUBKTNV-1" source="U6saIIwCPVE9olRDu_qW-65" target="U6saIIwCPVE9olRDu_qW-63">
          <mxGeometry width="100" height="100" relative="1" as="geometry">
            <Array as="points" />
          </mxGeometry>
        </mxCell>
        <mxCell id="U6saIIwCPVE9olRDu_qW-70" value="No" style="text;html=1;resizable=0;labelBackgroundColor=default;align=center;verticalAlign=middle;fontStyle=1;fontColor=#333333;fontSize=13.3;" vertex="1" parent="U6saIIwCPVE9olRDu_qW-69">
          <mxGeometry relative="1" as="geometry" />
        </mxCell>
        <mxCell id="U6saIIwCPVE9olRDu_qW-71" value=" View Company details" style="html=1;overflow=block;blockSpacing=1;whiteSpace=wrap;fontSize=16.7;fontColor=#3a414a;spacing=9;strokeColor=#3a414a;strokeOpacity=100;rounded=1;absoluteArcSize=1;arcSize=9;strokeWidth=0.8;lucidId=AVRfjgGf_0BC;" vertex="1" parent="WIyWlLk6GJQsqaUBKTNV-1">
          <mxGeometry x="-150" y="750" width="120" height="90" as="geometry" />
        </mxCell>
        <mxCell id="U6saIIwCPVE9olRDu_qW-72" value="" style="html=1;jettySize=18;whiteSpace=wrap;fontSize=13;strokeColor=#3a414a;strokeOpacity=100;strokeWidth=0.8;rounded=1;arcSize=12;edgeStyle=orthogonalEdgeStyle;startArrow=none;endArrow=block;endFill=1;exitX=0.5;exitY=1.004;exitPerimeter=0;entryX=0.5;entryY=-0.004;entryPerimeter=0;lucidId=AVRfRxoAb6NN;" edge="1" parent="WIyWlLk6GJQsqaUBKTNV-1" source="U6saIIwCPVE9olRDu_qW-84" target="U6saIIwCPVE9olRDu_qW-71">
          <mxGeometry width="100" height="100" relative="1" as="geometry">
            <Array as="points" />
          </mxGeometry>
        </mxCell>
        <mxCell id="U6saIIwCPVE9olRDu_qW-73" value="View Student Details" style="html=1;overflow=block;blockSpacing=1;whiteSpace=wrap;fontSize=16.7;fontColor=#3a414a;spacing=9;strokeColor=#3a414a;strokeOpacity=100;rounded=1;absoluteArcSize=1;arcSize=9;strokeWidth=0.8;lucidId=AVRfmWYGw-~k;" vertex="1" parent="WIyWlLk6GJQsqaUBKTNV-1">
          <mxGeometry x="30" y="750" width="120" height="90" as="geometry" />
        </mxCell>
        <mxCell id="U6saIIwCPVE9olRDu_qW-74" value="View Student&amp;nbsp;CV" style="html=1;overflow=block;blockSpacing=1;whiteSpace=wrap;fontSize=16.7;fontColor=#3a414a;spacing=9;strokeColor=#3a414a;strokeOpacity=100;rounded=1;absoluteArcSize=1;arcSize=9;strokeWidth=0.8;lucidId=AVRfVgjYBljb;" vertex="1" parent="WIyWlLk6GJQsqaUBKTNV-1">
          <mxGeometry x="30" y="900" width="120" height="90" as="geometry" />
        </mxCell>
        <mxCell id="U6saIIwCPVE9olRDu_qW-75" value="View Student&amp;nbsp;&lt;br&gt;demographic details" style="html=1;overflow=block;blockSpacing=1;whiteSpace=wrap;fontSize=16.7;fontColor=#3a414a;spacing=9;strokeColor=#3a414a;strokeOpacity=100;rounded=1;absoluteArcSize=1;arcSize=9;strokeWidth=0.8;lucidId=AVRf5qau-wK3;" vertex="1" parent="WIyWlLk6GJQsqaUBKTNV-1">
          <mxGeometry x="30" y="1050" width="120" height="98" as="geometry" />
        </mxCell>
        <mxCell id="ftR3uuFMRVhOYxYMTQK5-25" style="edgeStyle=orthogonalEdgeStyle;rounded=0;orthogonalLoop=1;jettySize=auto;html=1;exitX=0.5;exitY=1;exitDx=0;exitDy=0;entryX=1;entryY=0.5;entryDx=0;entryDy=0;" edge="1" parent="WIyWlLk6GJQsqaUBKTNV-1" source="U6saIIwCPVE9olRDu_qW-76" target="U6saIIwCPVE9olRDu_qW-79">
          <mxGeometry relative="1" as="geometry" />
        </mxCell>
        <mxCell id="U6saIIwCPVE9olRDu_qW-76" value="Remove Companies" style="html=1;overflow=block;blockSpacing=1;whiteSpace=wrap;fontSize=16.7;fontColor=#3a414a;spacing=9;strokeColor=#3a414a;strokeOpacity=100;rounded=1;absoluteArcSize=1;arcSize=9;strokeWidth=0.8;lucidId=AVRfoGfjneJi;" vertex="1" parent="WIyWlLk6GJQsqaUBKTNV-1">
          <mxGeometry x="-135" y="1232" width="120" height="90" as="geometry" />
        </mxCell>
        <mxCell id="U6saIIwCPVE9olRDu_qW-77" value="End" style="html=1;overflow=block;blockSpacing=1;whiteSpace=wrap;fontSize=16.7;fontColor=#3a414a;spacing=3.8;strokeColor=#3a414a;strokeOpacity=100;rounded=1;absoluteArcSize=1;arcSize=9;strokeWidth=0.8;lucidId=AVRf4MA~rnxc;" vertex="1" parent="WIyWlLk6GJQsqaUBKTNV-1">
          <mxGeometry x="-120" y="1480" width="120" height="60" as="geometry" />
        </mxCell>
        <mxCell id="U6saIIwCPVE9olRDu_qW-79" value="Logout" style="html=1;overflow=block;blockSpacing=1;whiteSpace=wrap;rhombus;fontSize=16.7;fontColor=#3a414a;spacing=3.8;strokeColor=#3a414a;strokeOpacity=100;rounded=1;absoluteArcSize=1;arcSize=9;strokeWidth=0.8;lucidId=mYRfYtZ8mxZb;" vertex="1" parent="WIyWlLk6GJQsqaUBKTNV-1">
          <mxGeometry x="-360" y="1313" width="120" height="90" as="geometry" />
        </mxCell>
        <mxCell id="U6saIIwCPVE9olRDu_qW-80" value="" style="html=1;jettySize=18;whiteSpace=wrap;fontSize=13.3;fontColor=#333333;fontStyle=1;strokeColor=#3a414a;strokeOpacity=100;strokeWidth=0.8;rounded=1;arcSize=12;edgeStyle=orthogonalEdgeStyle;startArrow=none;endArrow=block;endFill=1;exitX=0.5;exitY=0.012;exitPerimeter=0;entryX=-0.003;entryY=0.814;entryPerimeter=0;lucidId=ZYRfcBudAPGr;" edge="1" parent="WIyWlLk6GJQsqaUBKTNV-1" source="U6saIIwCPVE9olRDu_qW-79" target="U6saIIwCPVE9olRDu_qW-84">
          <mxGeometry width="100" height="100" relative="1" as="geometry">
            <Array as="points">
              <mxPoint x="-300" y="583" />
            </Array>
          </mxGeometry>
        </mxCell>
        <mxCell id="U6saIIwCPVE9olRDu_qW-81" value="No" style="text;html=1;resizable=0;labelBackgroundColor=default;align=center;verticalAlign=middle;fontStyle=1;fontColor=#333333;fontSize=13.3;" vertex="1" parent="U6saIIwCPVE9olRDu_qW-80">
          <mxGeometry relative="1" as="geometry" />
        </mxCell>
        <mxCell id="ftR3uuFMRVhOYxYMTQK5-22" style="edgeStyle=orthogonalEdgeStyle;rounded=0;orthogonalLoop=1;jettySize=auto;html=1;exitX=0.5;exitY=1;exitDx=0;exitDy=0;entryX=1;entryY=0.5;entryDx=0;entryDy=0;" edge="1" parent="WIyWlLk6GJQsqaUBKTNV-1" source="U6saIIwCPVE9olRDu_qW-84" target="U6saIIwCPVE9olRDu_qW-76">
          <mxGeometry relative="1" as="geometry">
            <mxPoint x="10" y="1280" as="targetPoint" />
            <Array as="points">
              <mxPoint x="-90" y="680" />
              <mxPoint x="5" y="680" />
              <mxPoint x="5" y="1277" />
            </Array>
          </mxGeometry>
        </mxCell>
        <mxCell id="U6saIIwCPVE9olRDu_qW-84" value="Admin&#xa;Dashboard" style="html=1;overflow=block;blockSpacing=1;whiteSpace=wrap;fontSize=16.7;fontColor=#3a414a;spacing=9;strokeColor=#3a414a;strokeOpacity=100;rounded=1;absoluteArcSize=1;arcSize=9;strokeWidth=0.8;lucidId=j0RfezFQ1N2I;" vertex="1" parent="WIyWlLk6GJQsqaUBKTNV-1">
          <mxGeometry x="-150" y="510" width="120" height="90" as="geometry" />
        </mxCell>
        <mxCell id="U6saIIwCPVE9olRDu_qW-85" value="" style="html=1;jettySize=18;whiteSpace=wrap;fontSize=13;strokeColor=#3a414a;strokeOpacity=100;strokeWidth=0.8;rounded=1;arcSize=12;edgeStyle=orthogonalEdgeStyle;startArrow=none;endArrow=block;endFill=1;exitX=0.5;exitY=1.004;exitPerimeter=0;entryX=0.548;entryY=-0.004;entryPerimeter=0;lucidId=X3RfZ6ksYyCI;" edge="1" parent="WIyWlLk6GJQsqaUBKTNV-1" source="U6saIIwCPVE9olRDu_qW-84" target="U6saIIwCPVE9olRDu_qW-73">
          <mxGeometry width="100" height="100" relative="1" as="geometry">
            <Array as="points">
              <mxPoint x="-90" y="680" />
              <mxPoint x="96" y="680" />
            </Array>
          </mxGeometry>
        </mxCell>
        <mxCell id="U6saIIwCPVE9olRDu_qW-86" value=" View Company Posts" style="html=1;overflow=block;blockSpacing=1;whiteSpace=wrap;fontSize=16.7;fontColor=#3a414a;spacing=9;strokeColor=#3a414a;strokeOpacity=100;rounded=1;absoluteArcSize=1;arcSize=9;strokeWidth=0.8;lucidId=P4RfBFV70oP1;" vertex="1" parent="WIyWlLk6GJQsqaUBKTNV-1">
          <mxGeometry x="-150" y="900" width="120" height="90" as="geometry" />
        </mxCell>
        <mxCell id="U6saIIwCPVE9olRDu_qW-87" value="" style="html=1;jettySize=18;whiteSpace=wrap;fontSize=13;strokeColor=#3a414a;strokeOpacity=100;strokeWidth=0.8;rounded=1;arcSize=12;edgeStyle=orthogonalEdgeStyle;startArrow=none;endArrow=block;endFill=1;exitX=0.5;exitY=1.004;exitPerimeter=0;entryX=0.5;entryY=-0.004;entryPerimeter=0;lucidId=t5RfJVPUYuIq;" edge="1" parent="WIyWlLk6GJQsqaUBKTNV-1" source="U6saIIwCPVE9olRDu_qW-71" target="U6saIIwCPVE9olRDu_qW-86">
          <mxGeometry width="100" height="100" relative="1" as="geometry">
            <Array as="points" />
          </mxGeometry>
        </mxCell>
        <mxCell id="U6saIIwCPVE9olRDu_qW-88" value="" style="html=1;jettySize=18;whiteSpace=wrap;fontSize=13;strokeColor=#3a414a;strokeOpacity=100;strokeWidth=0.8;rounded=1;arcSize=12;edgeStyle=orthogonalEdgeStyle;startArrow=none;endArrow=block;endFill=1;exitX=0.5;exitY=1.004;exitPerimeter=0;entryX=0.5;entryY=-0.004;entryPerimeter=0;lucidId=w5RfCT7C_RyO;" edge="1" parent="WIyWlLk6GJQsqaUBKTNV-1" source="U6saIIwCPVE9olRDu_qW-73" target="U6saIIwCPVE9olRDu_qW-74">
          <mxGeometry width="100" height="100" relative="1" as="geometry">
            <Array as="points" />
          </mxGeometry>
        </mxCell>
        <mxCell id="U6saIIwCPVE9olRDu_qW-89" value="" style="html=1;jettySize=18;whiteSpace=wrap;fontSize=13;strokeColor=#3a414a;strokeOpacity=100;strokeWidth=0.8;rounded=1;arcSize=12;edgeStyle=orthogonalEdgeStyle;startArrow=none;endArrow=block;endFill=1;exitX=0.5;exitY=1.004;exitPerimeter=0;entryX=0.5;entryY=-0.004;entryPerimeter=0;lucidId=A5Rfh9bwMZn3;" edge="1" parent="WIyWlLk6GJQsqaUBKTNV-1" source="U6saIIwCPVE9olRDu_qW-74" target="U6saIIwCPVE9olRDu_qW-75">
          <mxGeometry width="100" height="100" relative="1" as="geometry">
            <Array as="points" />
          </mxGeometry>
        </mxCell>
        <mxCell id="ftR3uuFMRVhOYxYMTQK5-24" style="edgeStyle=orthogonalEdgeStyle;rounded=0;orthogonalLoop=1;jettySize=auto;html=1;entryX=1;entryY=0.5;entryDx=0;entryDy=0;" edge="1" parent="WIyWlLk6GJQsqaUBKTNV-1" source="U6saIIwCPVE9olRDu_qW-90" target="U6saIIwCPVE9olRDu_qW-79">
          <mxGeometry relative="1" as="geometry" />
        </mxCell>
        <mxCell id="U6saIIwCPVE9olRDu_qW-90" value="Remove&#xa;Posted Position" style="html=1;overflow=block;blockSpacing=1;whiteSpace=wrap;fontSize=16.7;fontColor=#3a414a;spacing=9;strokeColor=#3a414a;strokeOpacity=100;rounded=1;absoluteArcSize=1;arcSize=9;strokeWidth=0.8;lucidId=i6RfgjDQ66PD;" vertex="1" parent="WIyWlLk6GJQsqaUBKTNV-1">
          <mxGeometry x="-150" y="1058" width="120" height="90" as="geometry" />
        </mxCell>
        <mxCell id="ftR3uuFMRVhOYxYMTQK5-23" style="edgeStyle=orthogonalEdgeStyle;rounded=0;orthogonalLoop=1;jettySize=auto;html=1;exitX=0.5;exitY=1;exitDx=0;exitDy=0;entryX=1;entryY=0.5;entryDx=0;entryDy=0;" edge="1" parent="WIyWlLk6GJQsqaUBKTNV-1" source="U6saIIwCPVE9olRDu_qW-91" target="U6saIIwCPVE9olRDu_qW-79">
          <mxGeometry relative="1" as="geometry">
            <mxPoint x="80" y="1410" as="targetPoint" />
          </mxGeometry>
        </mxCell>
        <mxCell id="U6saIIwCPVE9olRDu_qW-91" value="Remove Student&amp;nbsp;" style="html=1;overflow=block;blockSpacing=1;whiteSpace=wrap;fontSize=16.7;fontColor=#3a414a;spacing=9;strokeColor=#3a414a;strokeOpacity=100;rounded=1;absoluteArcSize=1;arcSize=9;strokeWidth=0.8;lucidId=n6Rfykvr6ROG;" vertex="1" parent="WIyWlLk6GJQsqaUBKTNV-1">
          <mxGeometry x="30" y="1200" width="120" height="90" as="geometry" />
        </mxCell>
        <mxCell id="U6saIIwCPVE9olRDu_qW-92" value="" style="html=1;jettySize=18;whiteSpace=wrap;fontSize=13;strokeColor=#3a414a;strokeOpacity=100;strokeWidth=0.8;rounded=1;arcSize=12;edgeStyle=orthogonalEdgeStyle;startArrow=none;endArrow=block;endFill=1;exitX=0.5;exitY=1.004;exitPerimeter=0;entryX=0.5;entryY=-0.004;entryPerimeter=0;lucidId=S7Rf9iU4pCoZ;" edge="1" parent="WIyWlLk6GJQsqaUBKTNV-1" source="U6saIIwCPVE9olRDu_qW-75" target="U6saIIwCPVE9olRDu_qW-91">
          <mxGeometry width="100" height="100" relative="1" as="geometry">
            <Array as="points" />
          </mxGeometry>
        </mxCell>
        <mxCell id="U6saIIwCPVE9olRDu_qW-94" value="" style="html=1;jettySize=18;whiteSpace=wrap;fontSize=13;strokeColor=#3a414a;strokeOpacity=100;strokeWidth=0.8;rounded=1;arcSize=12;edgeStyle=orthogonalEdgeStyle;startArrow=none;endArrow=block;endFill=1;exitX=0.5;exitY=1.004;exitPerimeter=0;entryX=0.5;entryY=-0.004;entryPerimeter=0;lucidId=-7RfDnZs2z5D;" edge="1" parent="WIyWlLk6GJQsqaUBKTNV-1" source="U6saIIwCPVE9olRDu_qW-86" target="U6saIIwCPVE9olRDu_qW-90">
          <mxGeometry width="100" height="100" relative="1" as="geometry">
            <Array as="points" />
          </mxGeometry>
        </mxCell>
        <mxCell id="U6saIIwCPVE9olRDu_qW-100" value="Start" style="html=1;overflow=block;blockSpacing=1;whiteSpace=wrap;fontSize=16.7;fontColor=#3a414a;spacing=3.8;strokeColor=#3a414a;strokeOpacity=100;rounded=1;absoluteArcSize=1;arcSize=9;strokeWidth=0.8;lucidId=1nPfR~oKIgcN;" vertex="1" parent="WIyWlLk6GJQsqaUBKTNV-1">
          <mxGeometry x="1043" y="235" width="120" height="60" as="geometry" />
        </mxCell>
        <mxCell id="ftR3uuFMRVhOYxYMTQK5-26" style="edgeStyle=orthogonalEdgeStyle;rounded=0;orthogonalLoop=1;jettySize=auto;html=1;exitX=0.5;exitY=1;exitDx=0;exitDy=0;entryX=1;entryY=0.5;entryDx=0;entryDy=0;" edge="1" parent="WIyWlLk6GJQsqaUBKTNV-1" source="U6saIIwCPVE9olRDu_qW-101" target="U6saIIwCPVE9olRDu_qW-102">
          <mxGeometry relative="1" as="geometry" />
        </mxCell>
        <mxCell id="U6saIIwCPVE9olRDu_qW-101" value="Student Login/Signup" style="html=1;overflow=block;blockSpacing=1;whiteSpace=wrap;fontSize=16.7;fontColor=#3a414a;spacing=9;strokeColor=#3a414a;strokeOpacity=100;rounded=1;absoluteArcSize=1;arcSize=9;strokeWidth=0.8;lucidId=NpPfjCMypFXf;" vertex="1" parent="WIyWlLk6GJQsqaUBKTNV-1">
          <mxGeometry x="1043" y="325" width="120" height="90" as="geometry" />
        </mxCell>
        <mxCell id="U6saIIwCPVE9olRDu_qW-102" value="Aproved" style="html=1;overflow=block;blockSpacing=1;whiteSpace=wrap;rhombus;fontSize=16.7;fontColor=#3a414a;spacing=3.8;strokeColor=#3a414a;strokeOpacity=100;rounded=1;absoluteArcSize=1;arcSize=9;strokeWidth=0.8;lucidId=gqPfsPw.SEzf;" vertex="1" parent="WIyWlLk6GJQsqaUBKTNV-1">
          <mxGeometry x="878" y="430" width="120" height="90" as="geometry" />
        </mxCell>
        <mxCell id="U6saIIwCPVE9olRDu_qW-103" value="" style="html=1;jettySize=18;whiteSpace=wrap;fontSize=13;strokeColor=#3a414a;strokeOpacity=100;strokeWidth=0.8;rounded=1;arcSize=12;edgeStyle=orthogonalEdgeStyle;startArrow=none;endArrow=block;endFill=1;exitX=0.5;exitY=1.006;exitPerimeter=0;entryX=0.5;entryY=-0.004;entryPerimeter=0;lucidId=YqPfzEDHEprc;" edge="1" parent="WIyWlLk6GJQsqaUBKTNV-1" source="U6saIIwCPVE9olRDu_qW-100" target="U6saIIwCPVE9olRDu_qW-101">
          <mxGeometry width="100" height="100" relative="1" as="geometry">
            <Array as="points" />
          </mxGeometry>
        </mxCell>
        <mxCell id="U6saIIwCPVE9olRDu_qW-104" value="See and edit Student details " style="html=1;overflow=block;blockSpacing=1;whiteSpace=wrap;fontSize=16.7;fontColor=#3a414a;spacing=9;strokeColor=#3a414a;strokeOpacity=100;rounded=1;absoluteArcSize=1;arcSize=9;strokeWidth=0.8;lucidId=7qPfCXUGxc9e;" vertex="1" parent="WIyWlLk6GJQsqaUBKTNV-1">
          <mxGeometry x="1040" y="630" width="120" height="90" as="geometry" />
        </mxCell>
        <mxCell id="U6saIIwCPVE9olRDu_qW-105" value="Upload/Edit CV" style="html=1;overflow=block;blockSpacing=1;whiteSpace=wrap;fontSize=16.7;fontColor=#3a414a;spacing=9;strokeColor=#3a414a;strokeOpacity=100;rounded=1;absoluteArcSize=1;arcSize=9;strokeWidth=0.8;lucidId=jvPfrJLH1VpZ;" vertex="1" parent="WIyWlLk6GJQsqaUBKTNV-1">
          <mxGeometry x="1045" y="737" width="120" height="90" as="geometry" />
        </mxCell>
        <mxCell id="U6saIIwCPVE9olRDu_qW-106" value="" style="html=1;jettySize=18;whiteSpace=wrap;fontSize=13;strokeColor=#3a414a;strokeOpacity=100;strokeWidth=0.8;rounded=1;arcSize=12;edgeStyle=orthogonalEdgeStyle;startArrow=none;endArrow=block;endFill=1;exitX=0.5;exitY=1.004;exitPerimeter=0;entryX=0.5;entryY=-0.004;entryPerimeter=0;lucidId=UvPfv4_iSMFO;" edge="1" parent="WIyWlLk6GJQsqaUBKTNV-1" source="U6saIIwCPVE9olRDu_qW-104" target="U6saIIwCPVE9olRDu_qW-105">
          <mxGeometry width="100" height="100" relative="1" as="geometry">
            <Array as="points" />
          </mxGeometry>
        </mxCell>
        <mxCell id="U6saIIwCPVE9olRDu_qW-107" value="Set demographic data" style="html=1;overflow=block;blockSpacing=1;whiteSpace=wrap;fontSize=16.7;fontColor=#3a414a;spacing=9;strokeColor=#3a414a;strokeOpacity=100;rounded=1;absoluteArcSize=1;arcSize=9;strokeWidth=0.8;lucidId=-vPfFZOsEnJX;" vertex="1" parent="WIyWlLk6GJQsqaUBKTNV-1">
          <mxGeometry x="1045" y="857" width="120" height="90" as="geometry" />
        </mxCell>
        <mxCell id="U6saIIwCPVE9olRDu_qW-108" value="" style="html=1;jettySize=18;whiteSpace=wrap;fontSize=13;strokeColor=#3a414a;strokeOpacity=100;strokeWidth=0.8;rounded=1;arcSize=12;edgeStyle=orthogonalEdgeStyle;startArrow=none;endArrow=block;endFill=1;exitX=0.5;exitY=1.004;exitPerimeter=0;entryX=0.5;entryY=-0.004;entryPerimeter=0;lucidId=SxPfCPC3-MI-;" edge="1" parent="WIyWlLk6GJQsqaUBKTNV-1" source="U6saIIwCPVE9olRDu_qW-105" target="U6saIIwCPVE9olRDu_qW-107">
          <mxGeometry width="100" height="100" relative="1" as="geometry">
            <Array as="points" />
          </mxGeometry>
        </mxCell>
        <mxCell id="U6saIIwCPVE9olRDu_qW-109" value="Apply for Available positions" style="html=1;overflow=block;blockSpacing=1;whiteSpace=wrap;fontSize=16.7;fontColor=#3a414a;spacing=9;strokeColor=#3a414a;strokeOpacity=100;rounded=1;absoluteArcSize=1;arcSize=9;strokeWidth=0.8;lucidId=ryPfw6Lafpp3;" vertex="1" parent="WIyWlLk6GJQsqaUBKTNV-1">
          <mxGeometry x="1045" y="977" width="120" height="90" as="geometry" />
        </mxCell>
        <mxCell id="U6saIIwCPVE9olRDu_qW-110" value="" style="html=1;jettySize=18;whiteSpace=wrap;fontSize=13;strokeColor=#3a414a;strokeOpacity=100;strokeWidth=0.8;rounded=1;arcSize=12;edgeStyle=orthogonalEdgeStyle;startArrow=none;endArrow=block;endFill=1;exitX=0.5;exitY=1.004;exitPerimeter=0;entryX=0.5;entryY=-0.004;entryPerimeter=0;lucidId=~yPfOSYPr5sB;" edge="1" parent="WIyWlLk6GJQsqaUBKTNV-1" source="U6saIIwCPVE9olRDu_qW-107" target="U6saIIwCPVE9olRDu_qW-109">
          <mxGeometry width="100" height="100" relative="1" as="geometry">
            <Array as="points" />
          </mxGeometry>
        </mxCell>
        <mxCell id="U6saIIwCPVE9olRDu_qW-111" value="Aproved" style="html=1;overflow=block;blockSpacing=1;whiteSpace=wrap;rhombus;fontSize=16.7;fontColor=#3a414a;spacing=3.8;strokeColor=#3a414a;strokeOpacity=100;rounded=1;absoluteArcSize=1;arcSize=9;strokeWidth=0.8;lucidId=SAPfholPbPQi;" vertex="1" parent="WIyWlLk6GJQsqaUBKTNV-1">
          <mxGeometry x="820" y="1030" width="120" height="90" as="geometry" />
        </mxCell>
        <mxCell id="U6saIIwCPVE9olRDu_qW-112" value="" style="html=1;jettySize=18;whiteSpace=wrap;fontSize=13;strokeColor=#3a414a;strokeOpacity=100;strokeWidth=0.8;rounded=1;arcSize=12;edgeStyle=orthogonalEdgeStyle;startArrow=none;endArrow=block;endFill=1;exitX=0.5;exitY=1.004;exitPerimeter=0;entryX=0.984;entryY=0.5;entryPerimeter=0;lucidId=8APf.Rj0NBZt;" edge="1" parent="WIyWlLk6GJQsqaUBKTNV-1" source="U6saIIwCPVE9olRDu_qW-109" target="U6saIIwCPVE9olRDu_qW-111">
          <mxGeometry width="100" height="100" relative="1" as="geometry">
            <Array as="points">
              <mxPoint x="1103" y="1075" />
            </Array>
          </mxGeometry>
        </mxCell>
        <mxCell id="U6saIIwCPVE9olRDu_qW-113" value="Notify applicant" style="html=1;overflow=block;blockSpacing=1;whiteSpace=wrap;fontSize=16.7;fontColor=#3a414a;spacing=9;strokeColor=#3a414a;strokeOpacity=100;rounded=1;absoluteArcSize=1;arcSize=9;strokeWidth=0.8;lucidId=JCPf2rHDap9g;" vertex="1" parent="WIyWlLk6GJQsqaUBKTNV-1">
          <mxGeometry x="820" y="895" width="120" height="90" as="geometry" />
        </mxCell>
        <mxCell id="U6saIIwCPVE9olRDu_qW-114" value="Notify applicant" style="html=1;overflow=block;blockSpacing=1;whiteSpace=wrap;fontSize=16.7;fontColor=#3a414a;spacing=9;strokeColor=#3a414a;strokeOpacity=100;rounded=1;absoluteArcSize=1;arcSize=9;strokeWidth=0.8;lucidId=QDPfB~sQYz2G;" vertex="1" parent="WIyWlLk6GJQsqaUBKTNV-1">
          <mxGeometry x="1045" y="1135" width="120" height="90" as="geometry" />
        </mxCell>
        <mxCell id="U6saIIwCPVE9olRDu_qW-115" value="" style="html=1;jettySize=18;whiteSpace=wrap;fontSize=13.3;fontColor=#333333;fontStyle=1;strokeColor=#3a414a;strokeOpacity=100;strokeWidth=0.8;rounded=1;arcSize=12;edgeStyle=orthogonalEdgeStyle;startArrow=none;endArrow=block;endFill=1;exitX=0.5;exitY=0.988;exitPerimeter=0;entryX=-0.003;entryY=0.5;entryPerimeter=0;lucidId=WDPfs3rb~l1D;" edge="1" parent="WIyWlLk6GJQsqaUBKTNV-1" source="U6saIIwCPVE9olRDu_qW-111" target="U6saIIwCPVE9olRDu_qW-114">
          <mxGeometry width="100" height="100" relative="1" as="geometry">
            <Array as="points" />
          </mxGeometry>
        </mxCell>
        <mxCell id="U6saIIwCPVE9olRDu_qW-116" value="Yes" style="text;html=1;resizable=0;labelBackgroundColor=default;align=center;verticalAlign=middle;fontStyle=1;fontColor=#333333;fontSize=13.3;" vertex="1" parent="U6saIIwCPVE9olRDu_qW-115">
          <mxGeometry relative="1" as="geometry" />
        </mxCell>
        <mxCell id="U6saIIwCPVE9olRDu_qW-117" value="" style="html=1;jettySize=18;whiteSpace=wrap;fontSize=13.3;fontColor=#333333;fontStyle=1;strokeColor=#3a414a;strokeOpacity=100;strokeWidth=0.8;rounded=1;arcSize=12;edgeStyle=orthogonalEdgeStyle;startArrow=none;endArrow=block;endFill=1;exitX=0.5;exitY=0.012;exitPerimeter=0;entryX=0.5;entryY=1.004;entryPerimeter=0;lucidId=ZDPfRpKiJrSR;" edge="1" parent="WIyWlLk6GJQsqaUBKTNV-1" source="U6saIIwCPVE9olRDu_qW-111" target="U6saIIwCPVE9olRDu_qW-113">
          <mxGeometry width="100" height="100" relative="1" as="geometry">
            <Array as="points" />
          </mxGeometry>
        </mxCell>
        <mxCell id="U6saIIwCPVE9olRDu_qW-118" value="No" style="text;html=1;resizable=0;labelBackgroundColor=default;align=center;verticalAlign=middle;fontStyle=1;fontColor=#333333;fontSize=13.3;" vertex="1" parent="U6saIIwCPVE9olRDu_qW-117">
          <mxGeometry relative="1" as="geometry" />
        </mxCell>
        <mxCell id="U6saIIwCPVE9olRDu_qW-119" value="" style="html=1;jettySize=18;whiteSpace=wrap;fontSize=13;strokeColor=#3a414a;strokeOpacity=100;strokeWidth=0.8;rounded=1;arcSize=12;edgeStyle=orthogonalEdgeStyle;startArrow=none;endArrow=block;endFill=1;exitX=1.003;exitY=0.5;exitPerimeter=0;entryX=-0.003;entryY=0.5;entryPerimeter=0;lucidId=0DPfLqBSP_2n;" edge="1" parent="WIyWlLk6GJQsqaUBKTNV-1" source="U6saIIwCPVE9olRDu_qW-113" target="U6saIIwCPVE9olRDu_qW-109">
          <mxGeometry width="100" height="100" relative="1" as="geometry">
            <Array as="points" />
          </mxGeometry>
        </mxCell>
        <mxCell id="U6saIIwCPVE9olRDu_qW-121" value="" style="html=1;jettySize=18;whiteSpace=wrap;fontSize=13.3;fontColor=#333333;fontStyle=1;strokeColor=#3a414a;strokeOpacity=100;strokeWidth=0.8;rounded=1;arcSize=12;edgeStyle=orthogonalEdgeStyle;startArrow=none;endArrow=block;endFill=1;exitX=0.5;exitY=0.988;exitPerimeter=0;entryX=0;entryY=0.5;lucidId=NEPfEkVWznoR;entryDx=0;entryDy=0;" edge="1" parent="WIyWlLk6GJQsqaUBKTNV-1" source="U6saIIwCPVE9olRDu_qW-102" target="ftR3uuFMRVhOYxYMTQK5-45">
          <mxGeometry width="100" height="100" relative="1" as="geometry">
            <Array as="points" />
          </mxGeometry>
        </mxCell>
        <mxCell id="U6saIIwCPVE9olRDu_qW-122" value="Yes" style="text;html=1;resizable=0;labelBackgroundColor=default;align=center;verticalAlign=middle;fontStyle=1;fontColor=#333333;fontSize=13.3;" vertex="1" parent="U6saIIwCPVE9olRDu_qW-121">
          <mxGeometry relative="1" as="geometry" />
        </mxCell>
        <mxCell id="U6saIIwCPVE9olRDu_qW-123" value="" style="html=1;jettySize=18;whiteSpace=wrap;fontSize=13.3;fontColor=#333333;fontStyle=1;strokeColor=#3a414a;strokeOpacity=100;strokeWidth=0.8;rounded=1;arcSize=12;edgeStyle=orthogonalEdgeStyle;startArrow=none;endArrow=block;endFill=1;exitX=0.5;exitY=0.012;exitPerimeter=0;entryX=-0.003;entryY=0.5;entryPerimeter=0;lucidId=XEPfPWzc7lf.;" edge="1" parent="WIyWlLk6GJQsqaUBKTNV-1" source="U6saIIwCPVE9olRDu_qW-102" target="U6saIIwCPVE9olRDu_qW-101">
          <mxGeometry width="100" height="100" relative="1" as="geometry">
            <Array as="points" />
          </mxGeometry>
        </mxCell>
        <mxCell id="U6saIIwCPVE9olRDu_qW-124" value="No" style="text;html=1;resizable=0;labelBackgroundColor=default;align=center;verticalAlign=middle;fontStyle=1;fontColor=#333333;fontSize=13.3;" vertex="1" parent="U6saIIwCPVE9olRDu_qW-123">
          <mxGeometry relative="1" as="geometry" />
        </mxCell>
        <mxCell id="U6saIIwCPVE9olRDu_qW-125" value="Show application status" style="html=1;overflow=block;blockSpacing=1;whiteSpace=wrap;fontSize=16.7;fontColor=#3a414a;spacing=9;strokeColor=#3a414a;strokeOpacity=100;rounded=1;absoluteArcSize=1;arcSize=9;strokeWidth=0.8;lucidId=FFPf40e3JZJB;" vertex="1" parent="WIyWlLk6GJQsqaUBKTNV-1">
          <mxGeometry x="1045" y="1255" width="120" height="90" as="geometry" />
        </mxCell>
        <mxCell id="U6saIIwCPVE9olRDu_qW-126" value="" style="html=1;jettySize=18;whiteSpace=wrap;fontSize=13;strokeColor=#3a414a;strokeOpacity=100;strokeWidth=0.8;rounded=1;arcSize=12;edgeStyle=orthogonalEdgeStyle;startArrow=none;endArrow=block;endFill=1;exitX=0.5;exitY=1.004;exitPerimeter=0;entryX=0.484;entryY=-0.004;entryPerimeter=0;lucidId=0FPfJ93sJWio;" edge="1" parent="WIyWlLk6GJQsqaUBKTNV-1" source="U6saIIwCPVE9olRDu_qW-114" target="U6saIIwCPVE9olRDu_qW-125">
          <mxGeometry width="100" height="100" relative="1" as="geometry">
            <Array as="points" />
          </mxGeometry>
        </mxCell>
        <mxCell id="U6saIIwCPVE9olRDu_qW-127" value="Hired?" style="html=1;overflow=block;blockSpacing=1;whiteSpace=wrap;rhombus;fontSize=16.7;fontColor=#3a414a;spacing=3.8;strokeColor=#3a414a;strokeOpacity=100;rounded=1;absoluteArcSize=1;arcSize=9;strokeWidth=0.8;lucidId=tHPfIdKEvLtx;" vertex="1" parent="WIyWlLk6GJQsqaUBKTNV-1">
          <mxGeometry x="1195" y="1330" width="120" height="90" as="geometry" />
        </mxCell>
        <mxCell id="U6saIIwCPVE9olRDu_qW-128" value="" style="html=1;jettySize=18;whiteSpace=wrap;fontSize=13;strokeColor=#3a414a;strokeOpacity=100;strokeWidth=0.8;rounded=1;arcSize=12;edgeStyle=orthogonalEdgeStyle;startArrow=none;endArrow=block;endFill=1;exitX=0.5;exitY=1.004;exitPerimeter=0;entryX=0.016;entryY=0.5;entryPerimeter=0;lucidId=eIPfDHqH.Nkj;" edge="1" parent="WIyWlLk6GJQsqaUBKTNV-1" source="U6saIIwCPVE9olRDu_qW-125" target="U6saIIwCPVE9olRDu_qW-127">
          <mxGeometry width="100" height="100" relative="1" as="geometry">
            <Array as="points" />
          </mxGeometry>
        </mxCell>
        <mxCell id="U6saIIwCPVE9olRDu_qW-129" value="End" style="html=1;overflow=block;blockSpacing=1;whiteSpace=wrap;fontSize=16.7;fontColor=#3a414a;spacing=3.8;strokeColor=#3a414a;strokeOpacity=100;rounded=1;absoluteArcSize=1;arcSize=9;strokeWidth=0.8;lucidId=mIPfdiJdinn.;" vertex="1" parent="WIyWlLk6GJQsqaUBKTNV-1">
          <mxGeometry x="1045" y="1450" width="120" height="60" as="geometry" />
        </mxCell>
        <mxCell id="U6saIIwCPVE9olRDu_qW-130" value="" style="html=1;jettySize=18;whiteSpace=wrap;fontSize=13.3;fontColor=#333333;fontStyle=1;strokeColor=#3a414a;strokeOpacity=100;strokeWidth=0.8;rounded=1;arcSize=12;edgeStyle=orthogonalEdgeStyle;startArrow=none;endArrow=block;endFill=1;exitX=0.5;exitY=0.988;exitPerimeter=0;entryX=1;entryY=0.5;lucidId=sIPf3jLugtjj;entryDx=0;entryDy=0;" edge="1" parent="WIyWlLk6GJQsqaUBKTNV-1" source="U6saIIwCPVE9olRDu_qW-127" target="ftR3uuFMRVhOYxYMTQK5-32">
          <mxGeometry width="100" height="100" relative="1" as="geometry">
            <Array as="points" />
          </mxGeometry>
        </mxCell>
        <mxCell id="U6saIIwCPVE9olRDu_qW-131" value="Yes" style="text;html=1;resizable=0;labelBackgroundColor=default;align=center;verticalAlign=middle;fontStyle=1;fontColor=#333333;fontSize=13.3;" vertex="1" parent="U6saIIwCPVE9olRDu_qW-130">
          <mxGeometry relative="1" as="geometry" />
        </mxCell>
        <mxCell id="U6saIIwCPVE9olRDu_qW-132" value="" style="html=1;jettySize=18;whiteSpace=wrap;fontSize=13.3;fontColor=#333333;fontStyle=1;strokeColor=#3a414a;strokeOpacity=100;strokeWidth=0.8;rounded=1;arcSize=12;edgeStyle=orthogonalEdgeStyle;startArrow=none;endArrow=block;endFill=1;exitX=0.5;exitY=0.012;exitPerimeter=0;lucidId=FIPfx_qywnSW;entryX=1;entryY=0.389;entryDx=0;entryDy=0;entryPerimeter=0;" edge="1" parent="WIyWlLk6GJQsqaUBKTNV-1" source="U6saIIwCPVE9olRDu_qW-127" target="ftR3uuFMRVhOYxYMTQK5-45">
          <mxGeometry width="100" height="100" relative="1" as="geometry">
            <Array as="points">
              <mxPoint x="1250" y="1331" />
              <mxPoint x="1250" y="530" />
            </Array>
            <mxPoint x="1170" y="530" as="targetPoint" />
          </mxGeometry>
        </mxCell>
        <mxCell id="U6saIIwCPVE9olRDu_qW-133" value="No" style="text;html=1;resizable=0;labelBackgroundColor=default;align=center;verticalAlign=middle;fontStyle=1;fontColor=#333333;fontSize=13.3;" vertex="1" parent="U6saIIwCPVE9olRDu_qW-132">
          <mxGeometry relative="1" as="geometry" />
        </mxCell>
        <mxCell id="U6saIIwCPVE9olRDu_qW-134" value="Start" style="html=1;overflow=block;blockSpacing=1;whiteSpace=wrap;fontSize=16.7;fontColor=#3a414a;spacing=3.8;strokeColor=#3a414a;strokeOpacity=100;rounded=1;absoluteArcSize=1;arcSize=9;strokeWidth=0.8;lucidId=4JPfSLMKeeYH;" vertex="1" parent="WIyWlLk6GJQsqaUBKTNV-1">
          <mxGeometry x="1760" y="232" width="120" height="60" as="geometry" />
        </mxCell>
        <mxCell id="U6saIIwCPVE9olRDu_qW-135" value="Student" style="html=1;overflow=block;blockSpacing=1;whiteSpace=wrap;fontSize=23.3;fontColor=#3a414a;fontStyle=1;spacing=3.8;strokeOpacity=0;fillOpacity=0;rounded=1;absoluteArcSize=1;arcSize=9;fillColor=#ffffff;strokeWidth=0.8;lucidId=.JPfKohKxwfh;" vertex="1" parent="WIyWlLk6GJQsqaUBKTNV-1">
          <mxGeometry x="1013" y="160" width="180" height="45" as="geometry" />
        </mxCell>
        <mxCell id="U6saIIwCPVE9olRDu_qW-136" value="Company" style="html=1;overflow=block;blockSpacing=1;whiteSpace=wrap;fontSize=23.3;fontColor=#3a414a;fontStyle=1;spacing=3.8;strokeOpacity=0;fillOpacity=0;rounded=1;absoluteArcSize=1;arcSize=9;fillColor=#ffffff;strokeWidth=0.8;lucidId=KKPfCHDkaLYf;" vertex="1" parent="WIyWlLk6GJQsqaUBKTNV-1">
          <mxGeometry x="1720" y="160" width="180" height="45" as="geometry" />
        </mxCell>
        <mxCell id="U6saIIwCPVE9olRDu_qW-137" value="Company Login/Signup" style="html=1;overflow=block;blockSpacing=1;whiteSpace=wrap;fontSize=16.7;fontColor=#3a414a;spacing=9;strokeColor=#3a414a;strokeOpacity=100;rounded=1;absoluteArcSize=1;arcSize=9;strokeWidth=0.8;lucidId=8LPf7ZuTac9A;" vertex="1" parent="WIyWlLk6GJQsqaUBKTNV-1">
          <mxGeometry x="1760" y="321" width="120" height="98" as="geometry" />
        </mxCell>
        <mxCell id="U6saIIwCPVE9olRDu_qW-138" value="" style="html=1;jettySize=18;whiteSpace=wrap;fontSize=13;strokeColor=#3a414a;strokeOpacity=100;strokeWidth=0.8;rounded=1;arcSize=12;edgeStyle=orthogonalEdgeStyle;startArrow=none;endArrow=block;endFill=1;exitX=0.5;exitY=1.006;exitPerimeter=0;entryX=0.5;entryY=-0.004;entryPerimeter=0;lucidId=WMPf9Byo02bF;" edge="1" parent="WIyWlLk6GJQsqaUBKTNV-1" source="U6saIIwCPVE9olRDu_qW-134" target="U6saIIwCPVE9olRDu_qW-137">
          <mxGeometry width="100" height="100" relative="1" as="geometry">
            <Array as="points" />
          </mxGeometry>
        </mxCell>
        <mxCell id="U6saIIwCPVE9olRDu_qW-139" value="Approved" style="html=1;overflow=block;blockSpacing=1;whiteSpace=wrap;rhombus;fontSize=16.7;fontColor=#3a414a;spacing=3.8;strokeColor=#3a414a;strokeOpacity=100;rounded=1;absoluteArcSize=1;arcSize=9;strokeWidth=0.8;lucidId=7MPfclN.pVjV;" vertex="1" parent="WIyWlLk6GJQsqaUBKTNV-1">
          <mxGeometry x="1600" y="445" width="120" height="90" as="geometry" />
        </mxCell>
        <mxCell id="U6saIIwCPVE9olRDu_qW-140" value="" style="html=1;jettySize=18;whiteSpace=wrap;fontSize=13;strokeColor=#3a414a;strokeOpacity=100;strokeWidth=0.8;rounded=1;arcSize=12;edgeStyle=orthogonalEdgeStyle;startArrow=none;endArrow=block;endFill=1;exitX=0.5;exitY=1.004;exitPerimeter=0;entryX=0.984;entryY=0.5;entryPerimeter=0;lucidId=gNPfz0zvk-01;" edge="1" parent="WIyWlLk6GJQsqaUBKTNV-1" source="U6saIIwCPVE9olRDu_qW-137" target="U6saIIwCPVE9olRDu_qW-139">
          <mxGeometry width="100" height="100" relative="1" as="geometry">
            <Array as="points">
              <mxPoint x="1810" y="490" />
            </Array>
          </mxGeometry>
        </mxCell>
        <mxCell id="U6saIIwCPVE9olRDu_qW-144" value="" style="html=1;jettySize=18;whiteSpace=wrap;fontSize=13.3;fontColor=#333333;fontStyle=1;strokeColor=#3a414a;strokeOpacity=100;strokeWidth=0.8;rounded=1;arcSize=12;edgeStyle=orthogonalEdgeStyle;startArrow=none;endArrow=block;endFill=1;exitX=0.5;exitY=0.012;exitPerimeter=0;entryX=-0.003;entryY=0.5;entryPerimeter=0;lucidId=vNPfw.6MBZ6i;" edge="1" parent="WIyWlLk6GJQsqaUBKTNV-1" source="U6saIIwCPVE9olRDu_qW-139" target="U6saIIwCPVE9olRDu_qW-137">
          <mxGeometry width="100" height="100" relative="1" as="geometry">
            <Array as="points">
              <mxPoint x="1738" y="446" />
              <mxPoint x="1738" y="370" />
            </Array>
          </mxGeometry>
        </mxCell>
        <mxCell id="U6saIIwCPVE9olRDu_qW-145" value="No" style="text;html=1;resizable=0;labelBackgroundColor=default;align=center;verticalAlign=middle;fontStyle=1;fontColor=#333333;fontSize=13.3;" vertex="1" parent="U6saIIwCPVE9olRDu_qW-144">
          <mxGeometry relative="1" as="geometry" />
        </mxCell>
        <mxCell id="U6saIIwCPVE9olRDu_qW-146" value="Create company profile" style="html=1;overflow=block;blockSpacing=1;whiteSpace=wrap;fontSize=16.7;fontColor=#3a414a;spacing=9;strokeColor=#3a414a;strokeOpacity=100;rounded=1;absoluteArcSize=1;arcSize=9;strokeWidth=0.8;lucidId=SYPfGHHJYd~5;" vertex="1" parent="WIyWlLk6GJQsqaUBKTNV-1">
          <mxGeometry x="1765" y="745" width="120" height="90" as="geometry" />
        </mxCell>
        <mxCell id="U6saIIwCPVE9olRDu_qW-149" value="" style="html=1;jettySize=18;whiteSpace=wrap;fontSize=13.3;fontColor=#333333;fontStyle=1;strokeColor=#3a414a;strokeOpacity=100;strokeWidth=0.8;rounded=1;arcSize=12;edgeStyle=orthogonalEdgeStyle;startArrow=none;endArrow=block;endFill=1;exitX=0.5;exitY=1;entryX=0;entryY=0.5;lucidId=lZPf2xNy47Kl;exitDx=0;exitDy=0;entryDx=0;entryDy=0;" edge="1" parent="WIyWlLk6GJQsqaUBKTNV-1" source="U6saIIwCPVE9olRDu_qW-139" target="ftR3uuFMRVhOYxYMTQK5-55">
          <mxGeometry width="100" height="100" relative="1" as="geometry">
            <Array as="points" />
            <mxPoint x="1975" y="713.9200000000001" as="sourcePoint" />
          </mxGeometry>
        </mxCell>
        <mxCell id="U6saIIwCPVE9olRDu_qW-150" value="Yes" style="text;html=1;resizable=0;labelBackgroundColor=default;align=center;verticalAlign=middle;fontStyle=1;fontColor=#333333;fontSize=13.3;" vertex="1" parent="U6saIIwCPVE9olRDu_qW-149">
          <mxGeometry relative="1" as="geometry" />
        </mxCell>
        <mxCell id="U6saIIwCPVE9olRDu_qW-153" value="Advertise availble positions" style="html=1;overflow=block;blockSpacing=1;whiteSpace=wrap;fontSize=16.7;fontColor=#3a414a;spacing=9;strokeColor=#3a414a;strokeOpacity=100;rounded=1;absoluteArcSize=1;arcSize=9;strokeWidth=0.8;lucidId=i0PfOMmBo.lP;" vertex="1" parent="WIyWlLk6GJQsqaUBKTNV-1">
          <mxGeometry x="1765" y="911.25" width="120" height="90" as="geometry" />
        </mxCell>
        <mxCell id="U6saIIwCPVE9olRDu_qW-154" value="" style="html=1;jettySize=18;whiteSpace=wrap;fontSize=13;strokeColor=#3a414a;strokeOpacity=100;strokeWidth=0.8;rounded=1;arcSize=12;edgeStyle=orthogonalEdgeStyle;startArrow=none;endArrow=block;endFill=1;exitX=0.5;exitY=1.004;exitPerimeter=0;entryX=0.5;entryY=-0.004;entryPerimeter=0;lucidId=F0PfLhy0lTtE;" edge="1" parent="WIyWlLk6GJQsqaUBKTNV-1" source="U6saIIwCPVE9olRDu_qW-146" target="U6saIIwCPVE9olRDu_qW-153">
          <mxGeometry width="100" height="100" relative="1" as="geometry">
            <Array as="points" />
          </mxGeometry>
        </mxCell>
        <mxCell id="U6saIIwCPVE9olRDu_qW-155" value="Get CV from applicant" style="html=1;overflow=block;blockSpacing=1;whiteSpace=wrap;fontSize=16.7;fontColor=#3a414a;spacing=9;strokeColor=#3a414a;strokeOpacity=100;rounded=1;absoluteArcSize=1;arcSize=9;strokeWidth=0.8;lucidId=l1PfhGKstH1g;" vertex="1" parent="WIyWlLk6GJQsqaUBKTNV-1">
          <mxGeometry x="1765" y="1056.25" width="120" height="90" as="geometry" />
        </mxCell>
        <mxCell id="U6saIIwCPVE9olRDu_qW-156" value="" style="html=1;jettySize=18;whiteSpace=wrap;fontSize=13;strokeColor=#3a414a;strokeOpacity=100;strokeWidth=0.8;rounded=1;arcSize=12;edgeStyle=orthogonalEdgeStyle;startArrow=none;endArrow=block;endFill=1;exitX=0.5;exitY=1.004;exitPerimeter=0;entryX=0.5;entryY=-0.004;entryPerimeter=0;lucidId=C1PfMw6iDEQv;" edge="1" parent="WIyWlLk6GJQsqaUBKTNV-1" source="U6saIIwCPVE9olRDu_qW-153" target="U6saIIwCPVE9olRDu_qW-155">
          <mxGeometry width="100" height="100" relative="1" as="geometry">
            <Array as="points" />
          </mxGeometry>
        </mxCell>
        <mxCell id="U6saIIwCPVE9olRDu_qW-157" value="Edit application status" style="html=1;overflow=block;blockSpacing=1;whiteSpace=wrap;fontSize=16.7;fontColor=#3a414a;spacing=9;strokeColor=#3a414a;strokeOpacity=100;rounded=1;absoluteArcSize=1;arcSize=9;strokeWidth=0.8;lucidId=t2PfVRjKztn4;" vertex="1" parent="WIyWlLk6GJQsqaUBKTNV-1">
          <mxGeometry x="1765" y="1333.25" width="120" height="90" as="geometry" />
        </mxCell>
        <mxCell id="U6saIIwCPVE9olRDu_qW-158" value="Hire &lt;br&gt;Applicant" style="html=1;overflow=block;blockSpacing=1;whiteSpace=wrap;rhombus;fontSize=16.7;fontColor=#3a414a;spacing=3.8;strokeColor=#3a414a;strokeOpacity=100;rounded=1;absoluteArcSize=1;arcSize=9;strokeWidth=0.8;lucidId=I3PfZfp.OlsL;" vertex="1" parent="WIyWlLk6GJQsqaUBKTNV-1">
          <mxGeometry x="1595" y="1480" width="125" height="90" as="geometry" />
        </mxCell>
        <mxCell id="U6saIIwCPVE9olRDu_qW-159" value="Add applicant to position" style="html=1;overflow=block;blockSpacing=1;whiteSpace=wrap;fontSize=16.7;fontColor=#3a414a;spacing=9;strokeColor=#3a414a;strokeOpacity=100;rounded=1;absoluteArcSize=1;arcSize=9;strokeWidth=0.8;lucidId=w4PfYMZL8Me4;" vertex="1" parent="WIyWlLk6GJQsqaUBKTNV-1">
          <mxGeometry x="1780" y="1581.25" width="120" height="90" as="geometry" />
        </mxCell>
        <mxCell id="U6saIIwCPVE9olRDu_qW-160" value="" style="html=1;jettySize=18;whiteSpace=wrap;fontSize=13.3;fontColor=#333333;fontStyle=1;strokeColor=#3a414a;strokeOpacity=100;strokeWidth=0.8;rounded=1;arcSize=12;edgeStyle=orthogonalEdgeStyle;startArrow=none;endArrow=block;endFill=1;entryX=0.5;entryY=-0.004;entryPerimeter=0;lucidId=C4PfxQg2Qp0q;exitX=0.5;exitY=1;exitDx=0;exitDy=0;" edge="1" parent="WIyWlLk6GJQsqaUBKTNV-1" source="U6saIIwCPVE9olRDu_qW-158" target="U6saIIwCPVE9olRDu_qW-159">
          <mxGeometry width="100" height="100" relative="1" as="geometry">
            <Array as="points" />
            <mxPoint x="1658" y="1563" as="sourcePoint" />
          </mxGeometry>
        </mxCell>
        <mxCell id="U6saIIwCPVE9olRDu_qW-161" value="Yes" style="text;html=1;resizable=0;labelBackgroundColor=default;align=center;verticalAlign=middle;fontStyle=1;fontColor=#333333;fontSize=13.3;" vertex="1" parent="U6saIIwCPVE9olRDu_qW-160">
          <mxGeometry relative="1" as="geometry" />
        </mxCell>
        <mxCell id="U6saIIwCPVE9olRDu_qW-162" value="" style="html=1;jettySize=18;whiteSpace=wrap;fontSize=13.3;fontColor=#333333;fontStyle=1;strokeColor=#3a414a;strokeOpacity=100;strokeWidth=0.8;rounded=1;arcSize=12;edgeStyle=orthogonalEdgeStyle;startArrow=none;endArrow=block;endFill=1;exitX=0.5;exitY=0.012;exitPerimeter=0;entryX=-0.003;entryY=0.5;entryPerimeter=0;lucidId=E4PfkLp-VpCh;" edge="1" parent="WIyWlLk6GJQsqaUBKTNV-1" target="U6saIIwCPVE9olRDu_qW-155">
          <mxGeometry width="100" height="100" relative="1" as="geometry">
            <Array as="points" />
            <mxPoint x="1657.5" y="1477.33" as="sourcePoint" />
          </mxGeometry>
        </mxCell>
        <mxCell id="U6saIIwCPVE9olRDu_qW-163" value="No" style="text;html=1;resizable=0;labelBackgroundColor=default;align=center;verticalAlign=middle;fontStyle=1;fontColor=#333333;fontSize=13.3;" vertex="1" parent="U6saIIwCPVE9olRDu_qW-162">
          <mxGeometry relative="1" as="geometry" />
        </mxCell>
        <mxCell id="U6saIIwCPVE9olRDu_qW-164" value="" style="html=1;jettySize=18;whiteSpace=wrap;fontSize=13;strokeColor=#3a414a;strokeOpacity=100;strokeWidth=0.8;rounded=1;arcSize=12;edgeStyle=orthogonalEdgeStyle;startArrow=none;endArrow=block;endFill=1;exitX=0.5;exitY=1.004;exitPerimeter=0;entryX=0.984;entryY=0.5;entryPerimeter=0;lucidId=L4PfcRR8N_l_;" edge="1" parent="WIyWlLk6GJQsqaUBKTNV-1" source="U6saIIwCPVE9olRDu_qW-157">
          <mxGeometry width="100" height="100" relative="1" as="geometry">
            <Array as="points">
              <mxPoint x="1825" y="1521.25" />
            </Array>
            <mxPoint x="1717.999999999999" y="1521.25" as="targetPoint" />
          </mxGeometry>
        </mxCell>
        <mxCell id="ftR3uuFMRVhOYxYMTQK5-57" style="edgeStyle=orthogonalEdgeStyle;rounded=0;orthogonalLoop=1;jettySize=auto;html=1;exitX=0;exitY=0.5;exitDx=0;exitDy=0;entryX=1;entryY=0.5;entryDx=0;entryDy=0;" edge="1" parent="WIyWlLk6GJQsqaUBKTNV-1" source="U6saIIwCPVE9olRDu_qW-165" target="ftR3uuFMRVhOYxYMTQK5-47">
          <mxGeometry relative="1" as="geometry" />
        </mxCell>
        <mxCell id="U6saIIwCPVE9olRDu_qW-165" value="Close position" style="html=1;overflow=block;blockSpacing=1;whiteSpace=wrap;fontSize=16.7;fontColor=#3a414a;spacing=9;strokeColor=#3a414a;strokeOpacity=100;rounded=1;absoluteArcSize=1;arcSize=9;strokeWidth=0.8;lucidId=r5PfzZv5Vq4V;" vertex="1" parent="WIyWlLk6GJQsqaUBKTNV-1">
          <mxGeometry x="1780" y="1709" width="120" height="90" as="geometry" />
        </mxCell>
        <mxCell id="U6saIIwCPVE9olRDu_qW-166" value="" style="html=1;jettySize=18;whiteSpace=wrap;fontSize=13;strokeColor=#3a414a;strokeOpacity=100;strokeWidth=0.8;rounded=1;arcSize=12;edgeStyle=orthogonalEdgeStyle;startArrow=none;endArrow=block;endFill=1;exitX=0.5;exitY=1.004;exitPerimeter=0;entryX=0.5;entryY=-0.004;entryPerimeter=0;lucidId=H5Pfyl7f0zxe;" edge="1" parent="WIyWlLk6GJQsqaUBKTNV-1" source="U6saIIwCPVE9olRDu_qW-159" target="U6saIIwCPVE9olRDu_qW-165">
          <mxGeometry width="100" height="100" relative="1" as="geometry">
            <Array as="points" />
          </mxGeometry>
        </mxCell>
        <mxCell id="U6saIIwCPVE9olRDu_qW-167" value="End" style="html=1;overflow=block;blockSpacing=1;whiteSpace=wrap;fontSize=16.7;fontColor=#3a414a;spacing=3.8;strokeColor=#3a414a;strokeOpacity=100;rounded=1;absoluteArcSize=1;arcSize=9;strokeWidth=0.8;lucidId=J5Pf4OYjiOez;" vertex="1" parent="WIyWlLk6GJQsqaUBKTNV-1">
          <mxGeometry x="1780" y="1840" width="120" height="60" as="geometry" />
        </mxCell>
        <mxCell id="U6saIIwCPVE9olRDu_qW-169" value="View Applicants details" style="html=1;overflow=block;blockSpacing=1;whiteSpace=wrap;fontSize=16.7;fontColor=#3a414a;spacing=9;strokeColor=#3a414a;strokeOpacity=100;rounded=1;absoluteArcSize=1;arcSize=9;strokeWidth=0.8;lucidId=c7Pf9QKA8PV1;" vertex="1" parent="WIyWlLk6GJQsqaUBKTNV-1">
          <mxGeometry x="1765" y="1198.25" width="120" height="78" as="geometry" />
        </mxCell>
        <mxCell id="U6saIIwCPVE9olRDu_qW-170" value="" style="html=1;jettySize=18;whiteSpace=wrap;fontSize=13;strokeColor=#3a414a;strokeOpacity=100;strokeWidth=0.8;rounded=1;arcSize=12;edgeStyle=orthogonalEdgeStyle;startArrow=none;endArrow=block;endFill=1;exitX=0.5;exitY=1.004;exitPerimeter=0;entryX=0.5;entryY=-0.005;entryPerimeter=0;lucidId=g7PfzvuTonvK;" edge="1" parent="WIyWlLk6GJQsqaUBKTNV-1" source="U6saIIwCPVE9olRDu_qW-155" target="U6saIIwCPVE9olRDu_qW-169">
          <mxGeometry width="100" height="100" relative="1" as="geometry">
            <Array as="points" />
          </mxGeometry>
        </mxCell>
        <mxCell id="U6saIIwCPVE9olRDu_qW-171" value="" style="html=1;jettySize=18;whiteSpace=wrap;fontSize=13;strokeColor=#3a414a;strokeOpacity=100;strokeWidth=0.8;rounded=1;arcSize=12;edgeStyle=orthogonalEdgeStyle;startArrow=none;endArrow=block;endFill=1;exitX=0.5;exitY=1.005;exitPerimeter=0;entryX=0.5;entryY=-0.004;entryPerimeter=0;lucidId=R8PfklV7cfVk;" edge="1" parent="WIyWlLk6GJQsqaUBKTNV-1" source="U6saIIwCPVE9olRDu_qW-169" target="U6saIIwCPVE9olRDu_qW-157">
          <mxGeometry width="100" height="100" relative="1" as="geometry">
            <Array as="points" />
          </mxGeometry>
        </mxCell>
        <mxCell id="U6saIIwCPVE9olRDu_qW-174" value="" style="html=1;overflow=block;blockSpacing=1;whiteSpace=wrap;fontSize=13;spacing=3.8;strokeColor=none;fillOpacity=0;fillColor=#ffffff;strokeWidth=0;lucidId=vt0e2JE7PdjI;" vertex="1" parent="WIyWlLk6GJQsqaUBKTNV-1">
          <mxGeometry x="-180" y="-360" width="75" height="28" as="geometry" />
        </mxCell>
        <mxCell id="ftR3uuFMRVhOYxYMTQK5-69" style="edgeStyle=orthogonalEdgeStyle;rounded=0;orthogonalLoop=1;jettySize=auto;html=1;exitX=0.5;exitY=1;exitDx=0;exitDy=0;entryX=0.25;entryY=0;entryDx=0;entryDy=0;" edge="1" parent="WIyWlLk6GJQsqaUBKTNV-1" source="U6saIIwCPVE9olRDu_qW-175" target="U6saIIwCPVE9olRDu_qW-236">
          <mxGeometry relative="1" as="geometry">
            <Array as="points">
              <mxPoint x="-153" y="-420" />
              <mxPoint x="-413" y="-420" />
            </Array>
          </mxGeometry>
        </mxCell>
        <mxCell id="U6saIIwCPVE9olRDu_qW-175" value="" style="html=1;overflow=block;blockSpacing=1;whiteSpace=wrap;strokeColor=none;fillColor=none;fontSize=16.7;fontColor=#3a414a;spacing=0;strokeOpacity=100;rounded=1;absoluteArcSize=1;arcSize=9;strokeWidth=0.8;" vertex="1" parent="WIyWlLk6GJQsqaUBKTNV-1">
          <mxGeometry x="-201" y="-540" width="96" height="75" as="geometry" />
        </mxCell>
        <mxCell id="U6saIIwCPVE9olRDu_qW-176" value="" style="part=1;whiteSpace=wrap;fontSize=16.7;fontColor=#3a414a;spacing=0;strokeColor=#3a414a;strokeOpacity=100;rounded=1;absoluteArcSize=1;arcSize=9;strokeWidth=0.8;" vertex="1" parent="U6saIIwCPVE9olRDu_qW-175">
          <mxGeometry width="91.19999999999999" height="71.25" as="geometry" />
        </mxCell>
        <mxCell id="U6saIIwCPVE9olRDu_qW-177" value="Companies" style="part=1;whiteSpace=wrap;fontSize=16.7;fontColor=#3a414a;spacing=0;strokeColor=#3a414a;strokeOpacity=100;rounded=1;absoluteArcSize=1;arcSize=9;strokeWidth=0.8;" vertex="1" parent="U6saIIwCPVE9olRDu_qW-175">
          <mxGeometry x="4.800000000000001" y="3.75" width="91.19999999999999" height="71.25" as="geometry" />
        </mxCell>
        <mxCell id="U6saIIwCPVE9olRDu_qW-178" value="External Entity" style="html=1;overflow=block;blockSpacing=1;whiteSpace=wrap;fontSize=16.7;fontColor=#3a414a;spacing=0;strokeColor=#3a414a;strokeOpacity=100;rounded=1;absoluteArcSize=1;arcSize=9;strokeWidth=0.8;lucidId=AF0eX~Eg7Yqs;" vertex="1" parent="WIyWlLk6GJQsqaUBKTNV-1">
          <mxGeometry x="165" y="-919" width="90" height="75" as="geometry" />
        </mxCell>
        <mxCell id="U6saIIwCPVE9olRDu_qW-179" value="&lt;div style=&quot;display: flex; justify-content: center; text-align: center; align-items: baseline; font-size: 0; line-height: 1.25;margin-top: -2px;&quot;&gt;&lt;span&gt;&lt;span style=&quot;font-size:16.7px;color:#3a414a;&quot;&gt;1.0&lt;/span&gt;&lt;/span&gt;&lt;/div&gt;" style="shape=swimlane;html=1;rounded=1;arcSize=10;collapsible=0;fontStyle=0;startSize=39;whiteSpace=wrap;overflow=block;blockSpacing=1;fontSize=13;spacing=0;strokeColor=#3a414a;strokeOpacity=100;strokeWidth=0.8;" vertex="1" parent="WIyWlLk6GJQsqaUBKTNV-1">
          <mxGeometry x="465" y="-911" width="105" height="75" as="geometry" />
        </mxCell>
        <mxCell id="U6saIIwCPVE9olRDu_qW-180" value="&lt;div style=&quot;display: flex; justify-content: center; text-align: center; align-items: baseline; font-size: 0; line-height: 1.25;margin-top: -2px;&quot;&gt;&lt;span&gt;&lt;span style=&quot;font-size:16.7px;color:#3a414a;&quot;&gt;Process&lt;/span&gt;&lt;/span&gt;&lt;/div&gt;" style="rounded=1;arcSize=10;strokeColor=none;fillColor=none;whiteSpace=wrap;overflow=block;blockSpacing=1;html=1;fontSize=13;spacing=0;strokeOpacity=100;strokeWidth=0.8;" vertex="1" parent="U6saIIwCPVE9olRDu_qW-179">
          <mxGeometry y="39" width="105" height="36" as="geometry" />
        </mxCell>
        <mxCell id="U6saIIwCPVE9olRDu_qW-181" value="" style="html=1;overflow=block;blockSpacing=1;whiteSpace=wrap;strokeColor=none;fillColor=none;fontSize=16.7;fontColor=#3a414a;spacing=0;strokeOpacity=100;rounded=1;absoluteArcSize=1;arcSize=9;strokeWidth=0.8;" vertex="1" parent="WIyWlLk6GJQsqaUBKTNV-1">
          <mxGeometry x="-201" y="-407" width="96" height="75" as="geometry" />
        </mxCell>
        <mxCell id="U6saIIwCPVE9olRDu_qW-182" value="" style="part=1;whiteSpace=wrap;fontSize=16.7;fontColor=#3a414a;spacing=0;strokeColor=#3a414a;strokeOpacity=100;rounded=1;absoluteArcSize=1;arcSize=9;strokeWidth=0.8;" vertex="1" parent="U6saIIwCPVE9olRDu_qW-181">
          <mxGeometry width="91.19999999999999" height="71.25" as="geometry" />
        </mxCell>
        <mxCell id="U6saIIwCPVE9olRDu_qW-183" value="Positions" style="part=1;whiteSpace=wrap;fontSize=16.7;fontColor=#3a414a;spacing=0;strokeColor=#3a414a;strokeOpacity=100;rounded=1;absoluteArcSize=1;arcSize=9;strokeWidth=0.8;" vertex="1" parent="U6saIIwCPVE9olRDu_qW-181">
          <mxGeometry x="4.800000000000001" y="3.75" width="91.19999999999999" height="71.25" as="geometry" />
        </mxCell>
        <mxCell id="ftR3uuFMRVhOYxYMTQK5-68" style="edgeStyle=orthogonalEdgeStyle;rounded=0;orthogonalLoop=1;jettySize=auto;html=1;exitX=0.5;exitY=1;exitDx=0;exitDy=0;entryX=0.5;entryY=1;entryDx=0;entryDy=0;" edge="1" parent="WIyWlLk6GJQsqaUBKTNV-1" source="U6saIIwCPVE9olRDu_qW-184" target="U6saIIwCPVE9olRDu_qW-237">
          <mxGeometry relative="1" as="geometry" />
        </mxCell>
        <mxCell id="U6saIIwCPVE9olRDu_qW-184" value="" style="html=1;overflow=block;blockSpacing=1;whiteSpace=wrap;strokeColor=none;fillColor=none;fontSize=16.7;fontColor=#3a414a;spacing=0;strokeOpacity=100;rounded=1;absoluteArcSize=1;arcSize=9;strokeWidth=0.8;" vertex="1" parent="WIyWlLk6GJQsqaUBKTNV-1">
          <mxGeometry x="-201" y="-225" width="96" height="75" as="geometry" />
        </mxCell>
        <mxCell id="U6saIIwCPVE9olRDu_qW-185" value="" style="part=1;whiteSpace=wrap;fontSize=16.7;fontColor=#3a414a;spacing=0;strokeColor=#3a414a;strokeOpacity=100;rounded=1;absoluteArcSize=1;arcSize=9;strokeWidth=0.8;" vertex="1" parent="U6saIIwCPVE9olRDu_qW-184">
          <mxGeometry width="91.19999999999999" height="71.25" as="geometry" />
        </mxCell>
        <mxCell id="U6saIIwCPVE9olRDu_qW-186" value="Learners" style="part=1;whiteSpace=wrap;fontSize=16.7;fontColor=#3a414a;spacing=0;strokeColor=#3a414a;strokeOpacity=100;rounded=1;absoluteArcSize=1;arcSize=9;strokeWidth=0.8;" vertex="1" parent="U6saIIwCPVE9olRDu_qW-184">
          <mxGeometry x="4.800000000000001" y="3.75" width="91.19999999999999" height="71.25" as="geometry" />
        </mxCell>
        <mxCell id="U6saIIwCPVE9olRDu_qW-187" value="Learners Data Store" style="html=1;overflow=block;blockSpacing=1;shape=partialRectangle;right=0;whiteSpace=wrap;fontSize=15;fontColor=#3a414a;spacing=0;strokeColor=#3a414a;strokeOpacity=100;rounded=1;absoluteArcSize=1;arcSize=9;strokeWidth=0.8;" vertex="1" parent="WIyWlLk6GJQsqaUBKTNV-1">
          <mxGeometry x="1245" y="-214" width="255" height="53" as="geometry" />
        </mxCell>
        <mxCell id="U6saIIwCPVE9olRDu_qW-188" value="D2" style="part=1;whiteSpace=wrap;fontSize=16.7;fontColor=#3a414a;spacing=0;strokeColor=#3a414a;strokeOpacity=100;rounded=1;absoluteArcSize=1;arcSize=9;strokeWidth=0.8;" vertex="1" parent="U6saIIwCPVE9olRDu_qW-187">
          <mxGeometry width="50.99999999999999" height="53" as="geometry" />
        </mxCell>
        <mxCell id="U6saIIwCPVE9olRDu_qW-189" value="&lt;div style=&quot;display: flex; justify-content: center; text-align: center; align-items: baseline; font-size: 0; line-height: 1.25;margin-top: -2px;&quot;&gt;&lt;span&gt;&lt;span style=&quot;font-size:16.7px;color:#3a414a;&quot;&gt;1.0&lt;/span&gt;&lt;/span&gt;&lt;/div&gt;" style="shape=swimlane;html=1;rounded=1;arcSize=10;collapsible=0;fontStyle=0;startSize=39;whiteSpace=wrap;overflow=block;blockSpacing=1;fontSize=13;spacing=0;strokeColor=#3a414a;strokeOpacity=100;strokeWidth=0.8;" vertex="1" parent="WIyWlLk6GJQsqaUBKTNV-1">
          <mxGeometry x="-15" y="-410" width="209" height="75" as="geometry" />
        </mxCell>
        <mxCell id="U6saIIwCPVE9olRDu_qW-190" value="&lt;div style=&quot;display: flex; justify-content: center; text-align: center; align-items: baseline; font-size: 0; line-height: 1.25;margin-top: -2px;&quot;&gt;&lt;span&gt;&lt;span style=&quot;font-size:14.7px;color:#000000;&quot;&gt;Search Positions&lt;/span&gt;&lt;/span&gt;&lt;/div&gt;" style="rounded=1;arcSize=10;strokeColor=none;fillColor=none;whiteSpace=wrap;overflow=block;blockSpacing=1;html=1;fontSize=13;spacing=0;strokeOpacity=100;strokeWidth=0.8;" vertex="1" parent="U6saIIwCPVE9olRDu_qW-189">
          <mxGeometry y="39" width="209" height="36" as="geometry" />
        </mxCell>
        <mxCell id="U6saIIwCPVE9olRDu_qW-191" value="&lt;div style=&quot;display: flex; justify-content: center; text-align: center; align-items: baseline; font-size: 0; line-height: 1.25;margin-top: -2px;&quot;&gt;&lt;span&gt;&lt;span style=&quot;font-size:16.7px;color:#3a414a;&quot;&gt;2.0&lt;/span&gt;&lt;/span&gt;&lt;/div&gt;" style="shape=swimlane;html=1;rounded=1;arcSize=10;collapsible=0;fontStyle=0;startSize=39;whiteSpace=wrap;overflow=block;blockSpacing=1;fontSize=13;spacing=0;strokeColor=#3a414a;strokeOpacity=100;strokeWidth=0.8;" vertex="1" parent="WIyWlLk6GJQsqaUBKTNV-1">
          <mxGeometry x="285" y="-410" width="209" height="75" as="geometry" />
        </mxCell>
        <mxCell id="U6saIIwCPVE9olRDu_qW-192" value="&lt;div style=&quot;display: flex; justify-content: center; text-align: center; align-items: baseline; font-size: 0; line-height: 1.25;margin-top: -2px;&quot;&gt;&lt;span&gt;&lt;span style=&quot;font-size:14.7px;color:#000000;&quot;&gt;Apply for Position&lt;/span&gt;&lt;/span&gt;&lt;/div&gt;" style="rounded=1;arcSize=10;strokeColor=none;fillColor=none;whiteSpace=wrap;overflow=block;blockSpacing=1;html=1;fontSize=13;spacing=0;strokeOpacity=100;strokeWidth=0.8;" vertex="1" parent="U6saIIwCPVE9olRDu_qW-191">
          <mxGeometry y="39" width="209" height="36" as="geometry" />
        </mxCell>
        <mxCell id="U6saIIwCPVE9olRDu_qW-193" value="&lt;div style=&quot;display: flex; justify-content: center; text-align: center; align-items: baseline; font-size: 0; line-height: 1.25;margin-top: -2px;&quot;&gt;&lt;span&gt;&lt;span style=&quot;font-size:16.7px;color:#3a414a;&quot;&gt;3.0&lt;/span&gt;&lt;/span&gt;&lt;/div&gt;" style="shape=swimlane;html=1;rounded=1;arcSize=10;collapsible=0;fontStyle=0;startSize=39;whiteSpace=wrap;overflow=block;blockSpacing=1;fontSize=13;spacing=0;strokeColor=#3a414a;strokeOpacity=100;strokeWidth=0.8;" vertex="1" parent="WIyWlLk6GJQsqaUBKTNV-1">
          <mxGeometry x="585" y="-410" width="209" height="75" as="geometry" />
        </mxCell>
        <mxCell id="U6saIIwCPVE9olRDu_qW-194" value="&lt;div style=&quot;display: flex; justify-content: center; text-align: center; align-items: baseline; font-size: 0; line-height: 1.25;margin-top: -2px;&quot;&gt;&lt;span&gt;&lt;span style=&quot;font-size:14.7px;color:#000000;&quot;&gt;Post Position&lt;/span&gt;&lt;/span&gt;&lt;/div&gt;" style="rounded=1;arcSize=10;strokeColor=none;fillColor=none;whiteSpace=wrap;overflow=block;blockSpacing=1;html=1;fontSize=13;spacing=0;strokeOpacity=100;strokeWidth=0.8;" vertex="1" parent="U6saIIwCPVE9olRDu_qW-193">
          <mxGeometry y="39" width="209" height="36" as="geometry" />
        </mxCell>
        <mxCell id="U6saIIwCPVE9olRDu_qW-195" value="&lt;div style=&quot;display: flex; justify-content: center; text-align: center; align-items: baseline; font-size: 0; line-height: 1.25;margin-top: -2px;&quot;&gt;&lt;span&gt;&lt;span style=&quot;font-size:16.7px;color:#3a414a;&quot;&gt;4.0&lt;/span&gt;&lt;/span&gt;&lt;/div&gt;" style="shape=swimlane;html=1;rounded=1;arcSize=10;collapsible=0;fontStyle=0;startSize=39;whiteSpace=wrap;overflow=block;blockSpacing=1;fontSize=13;spacing=0;strokeColor=#3a414a;strokeOpacity=100;strokeWidth=0.8;" vertex="1" parent="WIyWlLk6GJQsqaUBKTNV-1">
          <mxGeometry x="870" y="-410" width="209" height="75" as="geometry" />
        </mxCell>
        <mxCell id="U6saIIwCPVE9olRDu_qW-196" value="&lt;div style=&quot;display: flex; justify-content: center; text-align: center; align-items: baseline; font-size: 0; line-height: 1.25;margin-top: -2px;&quot;&gt;&lt;span&gt;&lt;span style=&quot;font-size:14.7px;color:#000000;&quot;&gt;Manage Positions&lt;/span&gt;&lt;/span&gt;&lt;/div&gt;" style="rounded=1;arcSize=10;strokeColor=none;fillColor=none;whiteSpace=wrap;overflow=block;blockSpacing=1;html=1;fontSize=13;spacing=0;strokeOpacity=100;strokeWidth=0.8;" vertex="1" parent="U6saIIwCPVE9olRDu_qW-195">
          <mxGeometry y="39" width="209" height="36" as="geometry" />
        </mxCell>
        <mxCell id="U6saIIwCPVE9olRDu_qW-197" value="" style="html=1;jettySize=18;whiteSpace=wrap;fontSize=13;strokeColor=#3a414a;strokeOpacity=100;strokeWidth=0.8;rounded=1;arcSize=12;edgeStyle=orthogonalEdgeStyle;startArrow=none;endArrow=block;endFill=1;exitX=1.004;exitY=0.5;exitPerimeter=0;entryX=0.5;entryY=-0.005;entryPerimeter=0;lucidId=da1ebkhHv~J9;" edge="1" parent="WIyWlLk6GJQsqaUBKTNV-1" source="U6saIIwCPVE9olRDu_qW-175" target="U6saIIwCPVE9olRDu_qW-193">
          <mxGeometry width="100" height="100" relative="1" as="geometry">
            <Array as="points" />
          </mxGeometry>
        </mxCell>
        <mxCell id="U6saIIwCPVE9olRDu_qW-198" value="" style="html=1;jettySize=18;whiteSpace=wrap;fontSize=13;strokeColor=#3a414a;strokeOpacity=100;strokeWidth=0.8;rounded=1;arcSize=12;edgeStyle=orthogonalEdgeStyle;startArrow=none;endArrow=block;endFill=1;exitX=1.004;exitY=0.236;exitPerimeter=0;entryX=0.5;entryY=-0.005;entryPerimeter=0;lucidId=xa1evQkzlRb7;" edge="1" parent="WIyWlLk6GJQsqaUBKTNV-1" source="U6saIIwCPVE9olRDu_qW-175" target="U6saIIwCPVE9olRDu_qW-195">
          <mxGeometry width="100" height="100" relative="1" as="geometry">
            <Array as="points" />
          </mxGeometry>
        </mxCell>
        <mxCell id="U6saIIwCPVE9olRDu_qW-199" value="&lt;div style=&quot;display: flex; justify-content: center; text-align: center; align-items: baseline; font-size: 0; line-height: 1.25;margin-top: -2px;&quot;&gt;&lt;span&gt;&lt;span style=&quot;font-size:16.7px;color:#3a414a;&quot;&gt;5.0&lt;/span&gt;&lt;/span&gt;&lt;/div&gt;" style="shape=swimlane;html=1;rounded=1;arcSize=10;collapsible=0;fontStyle=0;startSize=39;whiteSpace=wrap;overflow=block;blockSpacing=1;fontSize=13;spacing=0;strokeColor=#3a414a;strokeOpacity=100;strokeWidth=0.8;" vertex="1" parent="WIyWlLk6GJQsqaUBKTNV-1">
          <mxGeometry x="-15" y="-225" width="209" height="75" as="geometry" />
        </mxCell>
        <mxCell id="U6saIIwCPVE9olRDu_qW-200" value="&lt;div style=&quot;display: flex; justify-content: center; text-align: center; align-items: baseline; font-size: 0; line-height: 1.25;margin-top: -2px;&quot;&gt;&lt;span&gt;&lt;span style=&quot;font-size:14.7px;color:#000000;&quot;&gt;Register Learner&lt;/span&gt;&lt;/span&gt;&lt;/div&gt;" style="rounded=1;arcSize=10;strokeColor=none;fillColor=none;whiteSpace=wrap;overflow=block;blockSpacing=1;html=1;fontSize=13;spacing=0;strokeOpacity=100;strokeWidth=0.8;" vertex="1" parent="U6saIIwCPVE9olRDu_qW-199">
          <mxGeometry y="39" width="209" height="36" as="geometry" />
        </mxCell>
        <mxCell id="U6saIIwCPVE9olRDu_qW-201" value="" style="html=1;jettySize=18;whiteSpace=wrap;fontSize=13;strokeColor=#3a414a;strokeOpacity=100;strokeWidth=0.8;rounded=1;arcSize=12;edgeStyle=orthogonalEdgeStyle;startArrow=none;endArrow=block;endFill=1;exitX=1.004;exitY=0.516;exitPerimeter=0;entryX=-0.002;entryY=0.516;entryPerimeter=0;lucidId=-a1exVC7OsEc;" edge="1" parent="WIyWlLk6GJQsqaUBKTNV-1" source="U6saIIwCPVE9olRDu_qW-184" target="U6saIIwCPVE9olRDu_qW-199">
          <mxGeometry width="100" height="100" relative="1" as="geometry">
            <Array as="points" />
          </mxGeometry>
        </mxCell>
        <mxCell id="U6saIIwCPVE9olRDu_qW-202" value="" style="html=1;jettySize=18;whiteSpace=wrap;fontSize=13;strokeColor=#3a414a;strokeOpacity=100;strokeWidth=0.8;rounded=1;arcSize=12;edgeStyle=orthogonalEdgeStyle;startArrow=none;endArrow=block;endFill=1;exitX=-0.002;exitY=0.5;exitPerimeter=0;entryX=1.004;entryY=0.468;entryPerimeter=0;lucidId=qb1e4aK1ZEqi;" edge="1" parent="WIyWlLk6GJQsqaUBKTNV-1" source="U6saIIwCPVE9olRDu_qW-189" target="U6saIIwCPVE9olRDu_qW-181">
          <mxGeometry width="100" height="100" relative="1" as="geometry">
            <Array as="points" />
          </mxGeometry>
        </mxCell>
        <mxCell id="U6saIIwCPVE9olRDu_qW-203" value="" style="html=1;jettySize=18;whiteSpace=wrap;fontSize=13;strokeColor=#3a414a;strokeOpacity=100;strokeWidth=0.8;rounded=1;arcSize=12;edgeStyle=orthogonalEdgeStyle;startArrow=none;endArrow=block;endFill=1;exitX=-0.002;exitY=0.5;exitPerimeter=0;entryX=1.002;entryY=0.5;entryPerimeter=0;lucidId=fe1eEpdK3wra;" edge="1" parent="WIyWlLk6GJQsqaUBKTNV-1" source="U6saIIwCPVE9olRDu_qW-195" target="U6saIIwCPVE9olRDu_qW-193">
          <mxGeometry width="100" height="100" relative="1" as="geometry">
            <Array as="points" />
          </mxGeometry>
        </mxCell>
        <mxCell id="U6saIIwCPVE9olRDu_qW-204" value="" style="html=1;jettySize=18;whiteSpace=wrap;fontSize=13;strokeColor=#3a414a;strokeOpacity=100;strokeWidth=0.8;rounded=1;arcSize=12;edgeStyle=orthogonalEdgeStyle;startArrow=none;endArrow=block;endFill=1;exitX=0.5;exitY=1.005;exitPerimeter=0;entryX=-0.002;entryY=0.5;entryPerimeter=0;lucidId=le1eaW-bSwCe;" edge="1" parent="WIyWlLk6GJQsqaUBKTNV-1" source="U6saIIwCPVE9olRDu_qW-193" target="U6saIIwCPVE9olRDu_qW-212">
          <mxGeometry width="100" height="100" relative="1" as="geometry">
            <Array as="points">
              <mxPoint x="690" y="-317" />
              <mxPoint x="1130" y="-317" />
              <mxPoint x="1130" y="-438" />
            </Array>
          </mxGeometry>
        </mxCell>
        <mxCell id="U6saIIwCPVE9olRDu_qW-205" value="" style="html=1;jettySize=18;whiteSpace=wrap;fontSize=13;strokeColor=#3a414a;strokeOpacity=100;strokeWidth=0.8;rounded=1;arcSize=12;edgeStyle=orthogonalEdgeStyle;startArrow=none;endArrow=block;endFill=1;exitX=1.002;exitY=0.5;exitPerimeter=0;entryX=-0.002;entryY=0.5;entryPerimeter=0;lucidId=ue1e4jYCGK4q;" edge="1" parent="WIyWlLk6GJQsqaUBKTNV-1" source="U6saIIwCPVE9olRDu_qW-199" target="U6saIIwCPVE9olRDu_qW-206">
          <mxGeometry width="100" height="100" relative="1" as="geometry">
            <Array as="points" />
          </mxGeometry>
        </mxCell>
        <mxCell id="U6saIIwCPVE9olRDu_qW-206" value="&lt;div style=&quot;display: flex; justify-content: center; text-align: center; align-items: baseline; font-size: 0; line-height: 1.25;margin-top: -2px;&quot;&gt;&lt;span&gt;&lt;span style=&quot;font-size:16.7px;color:#3a414a;&quot;&gt;6.0&lt;/span&gt;&lt;/span&gt;&lt;/div&gt;" style="shape=swimlane;html=1;rounded=1;arcSize=10;collapsible=0;fontStyle=0;startSize=39;whiteSpace=wrap;overflow=block;blockSpacing=1;fontSize=13;spacing=0;strokeColor=#3a414a;strokeOpacity=100;strokeWidth=0.8;" vertex="1" parent="WIyWlLk6GJQsqaUBKTNV-1">
          <mxGeometry x="240" y="-225" width="209" height="75" as="geometry" />
        </mxCell>
        <mxCell id="U6saIIwCPVE9olRDu_qW-207" value="&lt;div style=&quot;display: flex; justify-content: center; text-align: center; align-items: baseline; font-size: 0; line-height: 1.25;margin-top: -2px;&quot;&gt;&lt;span&gt;&lt;span style=&quot;font-size:14.7px;color:#000000;&quot;&gt;Upload Resume&lt;/span&gt;&lt;/span&gt;&lt;/div&gt;" style="rounded=1;arcSize=10;strokeColor=none;fillColor=none;whiteSpace=wrap;overflow=block;blockSpacing=1;html=1;fontSize=13;spacing=0;strokeOpacity=100;strokeWidth=0.8;" vertex="1" parent="U6saIIwCPVE9olRDu_qW-206">
          <mxGeometry y="39" width="209" height="36" as="geometry" />
        </mxCell>
        <mxCell id="U6saIIwCPVE9olRDu_qW-208" value="" style="html=1;jettySize=18;whiteSpace=wrap;fontSize=13;strokeColor=#3a414a;strokeOpacity=100;strokeWidth=0.8;rounded=1;arcSize=12;edgeStyle=orthogonalEdgeStyle;startArrow=none;endArrow=block;endFill=1;exitX=1.002;exitY=0.5;exitPerimeter=0;entryX=0.5;entryY=-0.007;entryPerimeter=0;lucidId=Xf1emhImYQ1F;" edge="1" parent="WIyWlLk6GJQsqaUBKTNV-1" source="U6saIIwCPVE9olRDu_qW-206" target="U6saIIwCPVE9olRDu_qW-187">
          <mxGeometry width="100" height="100" relative="1" as="geometry">
            <Array as="points">
              <mxPoint x="510" y="-187" />
              <mxPoint x="510" y="-240" />
              <mxPoint x="1373" y="-240" />
            </Array>
          </mxGeometry>
        </mxCell>
        <mxCell id="U6saIIwCPVE9olRDu_qW-209" value="" style="html=1;jettySize=18;whiteSpace=wrap;fontSize=13;strokeColor=#3a414a;strokeOpacity=100;strokeWidth=0.8;rounded=1;arcSize=12;edgeStyle=orthogonalEdgeStyle;startArrow=none;endArrow=block;endFill=1;exitX=1.002;exitY=0.5;exitPerimeter=0;entryX=0.5;entryY=1.007;entryPerimeter=0;lucidId=fg1e9o5M8Ghl;" edge="1" parent="WIyWlLk6GJQsqaUBKTNV-1" source="U6saIIwCPVE9olRDu_qW-191" target="U6saIIwCPVE9olRDu_qW-212">
          <mxGeometry width="100" height="100" relative="1" as="geometry">
            <Array as="points">
              <mxPoint x="510" y="-372" />
              <mxPoint x="510" y="-262" />
              <mxPoint x="1370" y="-262" />
              <mxPoint x="1370" y="-410" />
            </Array>
          </mxGeometry>
        </mxCell>
        <mxCell id="U6saIIwCPVE9olRDu_qW-210" value="Data Store" style="html=1;overflow=block;blockSpacing=1;shape=partialRectangle;right=0;whiteSpace=wrap;fontSize=16.7;fontColor=#3a414a;spacing=0;strokeColor=#3a414a;strokeOpacity=100;rounded=1;absoluteArcSize=1;arcSize=9;strokeWidth=0.8;" vertex="1" parent="WIyWlLk6GJQsqaUBKTNV-1">
          <mxGeometry x="749" y="-911" width="121" height="68" as="geometry" />
        </mxCell>
        <mxCell id="U6saIIwCPVE9olRDu_qW-211" value="" style="part=1;whiteSpace=wrap;fontSize=13;fontColor=#3a414a;spacing=0;strokeColor=#3a414a;strokeOpacity=100;rounded=1;absoluteArcSize=1;arcSize=9;strokeWidth=0.8;" vertex="1" parent="U6saIIwCPVE9olRDu_qW-210">
          <mxGeometry width="24.200000000000003" height="68" as="geometry" />
        </mxCell>
        <mxCell id="U6saIIwCPVE9olRDu_qW-212" value="&lt;div style=&quot;display: flex; justify-content: center; text-align: center; align-items: baseline; font-size: 0; line-height: 1.25;margin-top: -2px;&quot;&gt;&lt;span&gt;&lt;span style=&quot;font-size:15px;color:#000000;&quot;&gt;Positions &lt;/span&gt;&lt;span style=&quot;font-size:15px;color:#3a414a;&quot;&gt;Data Store&lt;/span&gt;&lt;/span&gt;&lt;/div&gt;" style="shape=partialRectangle;right=0;whiteSpace=wrap;overflow=block;blockSpacing=1;html=1;fontSize=13;spacing=0;strokeColor=#3a414a;strokeOpacity=100;rounded=1;absoluteArcSize=1;arcSize=9;strokeWidth=0.8;" vertex="1" parent="WIyWlLk6GJQsqaUBKTNV-1">
          <mxGeometry x="1245" y="-465" width="255" height="53" as="geometry" />
        </mxCell>
        <mxCell id="U6saIIwCPVE9olRDu_qW-213" value="D1" style="part=1;whiteSpace=wrap;fontSize=16.7;fontColor=#3a414a;spacing=0;strokeColor=#3a414a;strokeOpacity=100;rounded=1;absoluteArcSize=1;arcSize=9;strokeWidth=0.8;" vertex="1" parent="U6saIIwCPVE9olRDu_qW-212">
          <mxGeometry width="50.99999999999999" height="53" as="geometry" />
        </mxCell>
        <mxCell id="U6saIIwCPVE9olRDu_qW-214" value="" style="html=1;jettySize=18;whiteSpace=wrap;fontSize=13;strokeColor=#3a414a;strokeOpacity=100;strokeWidth=0.8;rounded=1;arcSize=12;edgeStyle=orthogonalEdgeStyle;startArrow=none;endArrow=block;endFill=1;exitX=0.22;exitY=1.007;exitPerimeter=0;entryX=0.71;entryY=-0.005;entryPerimeter=0;lucidId=Ln1eAa4ckJBh;" edge="1" parent="WIyWlLk6GJQsqaUBKTNV-1" source="U6saIIwCPVE9olRDu_qW-212" target="U6saIIwCPVE9olRDu_qW-189">
          <mxGeometry width="100" height="100" relative="1" as="geometry">
            <Array as="points">
              <mxPoint x="1301" y="-285" />
              <mxPoint x="548" y="-285" />
              <mxPoint x="548" y="-440" />
              <mxPoint x="133" y="-440" />
            </Array>
          </mxGeometry>
        </mxCell>
        <mxCell id="U6saIIwCPVE9olRDu_qW-215" value="&lt;div style=&quot;display: flex; justify-content: center; text-align: center; align-items: baseline; font-size: 0; line-height: 1.25;margin-top: -2px;&quot;&gt;&lt;span&gt;&lt;span style=&quot;font-size:16.7px;color:#3a414a;&quot;&gt;7.0&lt;/span&gt;&lt;/span&gt;&lt;/div&gt;" style="shape=swimlane;html=1;rounded=1;arcSize=10;collapsible=0;fontStyle=0;startSize=39;whiteSpace=wrap;overflow=block;blockSpacing=1;fontSize=13;spacing=0;strokeColor=#3a414a;strokeOpacity=100;strokeWidth=0.8;" vertex="1" parent="WIyWlLk6GJQsqaUBKTNV-1">
          <mxGeometry x="585" y="-198" width="209" height="75" as="geometry" />
        </mxCell>
        <mxCell id="U6saIIwCPVE9olRDu_qW-216" value="&lt;div style=&quot;display: flex; justify-content: center; text-align: center; align-items: baseline; font-size: 0; line-height: 1.25;margin-top: -2px;&quot;&gt;&lt;span&gt;&lt;span style=&quot;font-size:14.7px;color:#000000;&quot;&gt;Search Learners&lt;/span&gt;&lt;/span&gt;&lt;/div&gt;" style="rounded=1;arcSize=10;strokeColor=none;fillColor=none;whiteSpace=wrap;overflow=block;blockSpacing=1;html=1;fontSize=13;spacing=0;strokeOpacity=100;strokeWidth=0.8;" vertex="1" parent="U6saIIwCPVE9olRDu_qW-215">
          <mxGeometry y="39" width="209" height="36" as="geometry" />
        </mxCell>
        <mxCell id="U6saIIwCPVE9olRDu_qW-217" value="" style="html=1;jettySize=18;whiteSpace=wrap;fontSize=13;strokeColor=#3a414a;strokeOpacity=100;strokeWidth=0.8;rounded=1;arcSize=12;edgeStyle=orthogonalEdgeStyle;startArrow=none;endArrow=block;endFill=1;exitX=-0.002;exitY=0.5;exitPerimeter=0;entryX=1.002;entryY=0.141;entryPerimeter=0;lucidId=Rp1evgwjynvI;" edge="1" parent="WIyWlLk6GJQsqaUBKTNV-1" source="U6saIIwCPVE9olRDu_qW-187" target="U6saIIwCPVE9olRDu_qW-215">
          <mxGeometry width="100" height="100" relative="1" as="geometry">
            <Array as="points" />
          </mxGeometry>
        </mxCell>
        <mxCell id="U6saIIwCPVE9olRDu_qW-218" value="Data-Flow Diagram" style="html=1;overflow=block;blockSpacing=1;whiteSpace=wrap;fontSize=56;fontColor=default;align=left;spacing=3.8;verticalAlign=top;strokeColor=none;fillOpacity=0;fillColor=#ffffff;strokeWidth=0;lucidId=Hr1eLJS6BWqw;" vertex="1" parent="WIyWlLk6GJQsqaUBKTNV-1">
          <mxGeometry x="255" y="-765" width="494" height="86" as="geometry" />
        </mxCell>
        <mxCell id="U6saIIwCPVE9olRDu_qW-219" value="Email Cv to recruitment email address" style="html=1;overflow=block;blockSpacing=1;whiteSpace=wrap;fontSize=18.3;fontColor=#3a414a;spacing=3.8;strokeColor=#3a414a;strokeOpacity=100;rounded=1;absoluteArcSize=1;arcSize=9;strokeWidth=0.8;lucidId=n1PftqlepwuE;" vertex="1" parent="WIyWlLk6GJQsqaUBKTNV-1">
          <mxGeometry x="-630" y="370" width="195" height="105" as="geometry" />
        </mxCell>
        <mxCell id="U6saIIwCPVE9olRDu_qW-220" value="Start" style="html=1;overflow=block;blockSpacing=1;whiteSpace=wrap;fontSize=18.3;fontColor=#3a414a;spacing=3.8;strokeColor=#3a414a;strokeOpacity=100;rounded=1;absoluteArcSize=1;arcSize=9;strokeWidth=0.8;lucidId=J1PfRxyrJoh.;" vertex="1" parent="WIyWlLk6GJQsqaUBKTNV-1">
          <mxGeometry x="-592.5" y="210" width="120" height="60" as="geometry" />
        </mxCell>
        <mxCell id="U6saIIwCPVE9olRDu_qW-221" value="" style="html=1;jettySize=18;whiteSpace=wrap;fontSize=13;strokeColor=#3a414a;strokeOpacity=100;strokeWidth=0.8;rounded=1;arcSize=12;edgeStyle=orthogonalEdgeStyle;startArrow=none;endArrow=block;endFill=1;exitX=0.5;exitY=1.006;exitPerimeter=0;entryX=0.5;entryY=-0.004;entryPerimeter=0;lucidId=Q1PfGcEg8t-Z;" edge="1" parent="WIyWlLk6GJQsqaUBKTNV-1" source="U6saIIwCPVE9olRDu_qW-220" target="U6saIIwCPVE9olRDu_qW-219">
          <mxGeometry width="100" height="100" relative="1" as="geometry">
            <Array as="points" />
          </mxGeometry>
        </mxCell>
        <mxCell id="U6saIIwCPVE9olRDu_qW-222" value="Success" style="html=1;overflow=block;blockSpacing=1;whiteSpace=wrap;rhombus;fontSize=16.7;fontColor=#3a414a;spacing=3.8;strokeColor=#3a414a;strokeOpacity=100;rounded=1;absoluteArcSize=1;arcSize=9;strokeWidth=0.8;lucidId=62Pfc2wFKe9I;" vertex="1" parent="WIyWlLk6GJQsqaUBKTNV-1">
          <mxGeometry x="-592.5" y="655" width="120" height="90" as="geometry" />
        </mxCell>
        <mxCell id="U6saIIwCPVE9olRDu_qW-223" value="" style="html=1;jettySize=18;whiteSpace=wrap;fontSize=13;strokeColor=#3a414a;strokeOpacity=100;strokeWidth=0.8;rounded=1;arcSize=12;edgeStyle=orthogonalEdgeStyle;startArrow=none;endArrow=block;endFill=1;exitX=0.5;exitY=1.004;exitPerimeter=0;entryX=0.5;entryY=0.012;entryPerimeter=0;lucidId=~2PfIqn.0Ghj;" edge="1" parent="WIyWlLk6GJQsqaUBKTNV-1" source="U6saIIwCPVE9olRDu_qW-219" target="U6saIIwCPVE9olRDu_qW-222">
          <mxGeometry width="100" height="100" relative="1" as="geometry">
            <Array as="points" />
          </mxGeometry>
        </mxCell>
        <mxCell id="U6saIIwCPVE9olRDu_qW-224" value="" style="html=1;jettySize=18;whiteSpace=wrap;fontSize=13.3;fontColor=#333333;fontStyle=1;strokeColor=#3a414a;strokeOpacity=100;strokeWidth=0.8;rounded=1;arcSize=12;edgeStyle=orthogonalEdgeStyle;startArrow=none;endArrow=block;endFill=1;exitX=0.5;exitY=0.988;exitPerimeter=0;lucidId=f3PfkLtObVfu;" edge="1" parent="WIyWlLk6GJQsqaUBKTNV-1" source="U6saIIwCPVE9olRDu_qW-222" target="U6saIIwCPVE9olRDu_qW-228">
          <mxGeometry width="100" height="100" relative="1" as="geometry">
            <Array as="points" />
            <mxPoint x="-217" y="885" as="targetPoint" />
          </mxGeometry>
        </mxCell>
        <mxCell id="U6saIIwCPVE9olRDu_qW-225" value="Yes" style="text;html=1;resizable=0;labelBackgroundColor=default;align=center;verticalAlign=middle;fontStyle=1;fontColor=#333333;fontSize=13.3;" vertex="1" parent="U6saIIwCPVE9olRDu_qW-224">
          <mxGeometry relative="1" as="geometry" />
        </mxCell>
        <mxCell id="ftR3uuFMRVhOYxYMTQK5-20" style="edgeStyle=orthogonalEdgeStyle;rounded=0;orthogonalLoop=1;jettySize=auto;html=1;exitX=0.5;exitY=1;exitDx=0;exitDy=0;entryX=0.5;entryY=0;entryDx=0;entryDy=0;" edge="1" parent="WIyWlLk6GJQsqaUBKTNV-1" source="U6saIIwCPVE9olRDu_qW-228" target="U6saIIwCPVE9olRDu_qW-229">
          <mxGeometry relative="1" as="geometry" />
        </mxCell>
        <mxCell id="U6saIIwCPVE9olRDu_qW-228" value="Store as .pdf" style="html=1;overflow=block;blockSpacing=1;whiteSpace=wrap;fontSize=16.7;fontColor=#3a414a;spacing=9;strokeColor=#3a414a;strokeOpacity=100;rounded=1;absoluteArcSize=1;arcSize=9;strokeWidth=0.8;lucidId=b4PfZSPiV13s;" vertex="1" parent="WIyWlLk6GJQsqaUBKTNV-1">
          <mxGeometry x="-637.5" y="865" width="210" height="90" as="geometry" />
        </mxCell>
        <mxCell id="U6saIIwCPVE9olRDu_qW-229" value="Business Request CV" style="html=1;overflow=block;blockSpacing=1;whiteSpace=wrap;fontSize=16.7;fontColor=#3a414a;spacing=9;strokeColor=#3a414a;strokeOpacity=100;rounded=1;absoluteArcSize=1;arcSize=9;strokeWidth=0.8;lucidId=I9PfVonBesUt;" vertex="1" parent="WIyWlLk6GJQsqaUBKTNV-1">
          <mxGeometry x="-637.5" y="1045" width="209" height="90" as="geometry" />
        </mxCell>
        <mxCell id="U6saIIwCPVE9olRDu_qW-232" value="" style="html=1;jettySize=18;whiteSpace=wrap;fontSize=13;strokeColor=#3a414a;strokeOpacity=100;strokeWidth=0.8;rounded=1;arcSize=12;edgeStyle=orthogonalEdgeStyle;startArrow=none;endArrow=block;endFill=1;exitX=0.5;exitY=1.004;exitPerimeter=0;entryX=0.5;entryY=0;lucidId=S-Pfz9nNPDf2;entryDx=0;entryDy=0;" edge="1" parent="WIyWlLk6GJQsqaUBKTNV-1" source="U6saIIwCPVE9olRDu_qW-229" target="ftR3uuFMRVhOYxYMTQK5-21">
          <mxGeometry width="100" height="100" relative="1" as="geometry">
            <Array as="points" />
            <mxPoint x="-661.6699999999998" y="1165" as="targetPoint" />
          </mxGeometry>
        </mxCell>
        <mxCell id="U6saIIwCPVE9olRDu_qW-233" value="" style="html=1;jettySize=18;whiteSpace=wrap;fontSize=13;strokeColor=#3a414a;strokeOpacity=100;strokeWidth=0.8;rounded=1;arcSize=12;edgeStyle=orthogonalEdgeStyle;startArrow=none;endArrow=block;endFill=1;exitX=1.002;exitY=0.5;exitPerimeter=0;entryX=-0.002;entryY=0.5;entryPerimeter=0;lucidId=6ARfzO6wqZZ1;" edge="1" parent="WIyWlLk6GJQsqaUBKTNV-1" source="U6saIIwCPVE9olRDu_qW-189" target="U6saIIwCPVE9olRDu_qW-191">
          <mxGeometry width="100" height="100" relative="1" as="geometry">
            <Array as="points" />
          </mxGeometry>
        </mxCell>
        <mxCell id="U6saIIwCPVE9olRDu_qW-234" value="&lt;div style=&quot;display: flex; justify-content: center; text-align: center; align-items: baseline; font-size: 0; line-height: 1.25;margin-top: -2px;&quot;&gt;&lt;span&gt;&lt;span style=&quot;font-size:16.7px;color:#3a414a;&quot;&gt;69.0&lt;/span&gt;&lt;/span&gt;&lt;/div&gt;" style="shape=swimlane;html=1;rounded=1;arcSize=10;collapsible=0;fontStyle=0;startSize=39;whiteSpace=wrap;overflow=block;blockSpacing=1;fontSize=13;spacing=0;strokeColor=#3a414a;strokeOpacity=100;strokeWidth=0.8;" vertex="1" parent="WIyWlLk6GJQsqaUBKTNV-1">
          <mxGeometry x="-465" y="-525" width="209" height="75" as="geometry" />
        </mxCell>
        <mxCell id="U6saIIwCPVE9olRDu_qW-235" value="&lt;div style=&quot;display: flex; justify-content: center; text-align: center; align-items: baseline; font-size: 0; line-height: 1.25;margin-top: -2px;&quot;&gt;&lt;span&gt;&lt;span style=&quot;font-size:14.7px;color:#000000;&quot;&gt;Sign up/Login&amp;nbsp;&lt;/span&gt;&lt;/span&gt;&lt;/div&gt;" style="rounded=1;arcSize=10;strokeColor=none;fillColor=none;whiteSpace=wrap;overflow=block;blockSpacing=1;html=1;fontSize=13;spacing=0;strokeOpacity=100;strokeWidth=0.8;" vertex="1" parent="U6saIIwCPVE9olRDu_qW-234">
          <mxGeometry y="39" width="209" height="36" as="geometry" />
        </mxCell>
        <mxCell id="U6saIIwCPVE9olRDu_qW-236" value="&lt;div style=&quot;display: flex; justify-content: center; text-align: center; align-items: baseline; font-size: 0; line-height: 1.25;margin-top: -2px;&quot;&gt;&lt;span&gt;&lt;span style=&quot;font-size:16.7px;color:#3a414a;&quot;&gt;420.0&lt;/span&gt;&lt;/span&gt;&lt;/div&gt;" style="shape=swimlane;html=1;rounded=1;arcSize=10;collapsible=0;fontStyle=0;startSize=39;whiteSpace=wrap;overflow=block;blockSpacing=1;fontSize=13;spacing=0;strokeColor=#3a414a;strokeOpacity=100;strokeWidth=0.8;" vertex="1" parent="WIyWlLk6GJQsqaUBKTNV-1">
          <mxGeometry x="-465" y="-300" width="209" height="75" as="geometry" />
        </mxCell>
        <mxCell id="U6saIIwCPVE9olRDu_qW-237" value="&lt;div style=&quot;display: flex; justify-content: center; text-align: center; align-items: baseline; font-size: 0; line-height: 1.25;margin-top: -2px;&quot;&gt;&lt;span&gt;&lt;span style=&quot;font-size:14.7px;color:#000000;&quot;&gt;Login&lt;/span&gt;&lt;/span&gt;&lt;/div&gt;" style="rounded=1;arcSize=10;strokeColor=none;fillColor=none;whiteSpace=wrap;overflow=block;blockSpacing=1;html=1;fontSize=13;spacing=0;strokeOpacity=100;strokeWidth=0.8;" vertex="1" parent="U6saIIwCPVE9olRDu_qW-236">
          <mxGeometry y="39" width="209" height="36" as="geometry" />
        </mxCell>
        <mxCell id="U6saIIwCPVE9olRDu_qW-238" value="" style="html=1;jettySize=18;whiteSpace=wrap;fontSize=13;strokeColor=#3a414a;strokeOpacity=100;strokeWidth=0.8;rounded=1;arcSize=12;edgeStyle=orthogonalEdgeStyle;startArrow=none;endArrow=block;endFill=1;exitX=0.5;exitY=-0.005;exitPerimeter=0;entryX=0.709;entryY=-0.005;entryPerimeter=0;lucidId=TFRfZ9RldpRP;" edge="1" parent="WIyWlLk6GJQsqaUBKTNV-1" source="U6saIIwCPVE9olRDu_qW-175" target="U6saIIwCPVE9olRDu_qW-234">
          <mxGeometry width="100" height="100" relative="1" as="geometry">
            <Array as="points">
              <mxPoint x="-153" y="-555" />
              <mxPoint x="-317" y="-555" />
            </Array>
          </mxGeometry>
        </mxCell>
        <mxCell id="U6saIIwCPVE9olRDu_qW-239" value="" style="html=1;jettySize=18;whiteSpace=wrap;fontSize=13;strokeColor=#3a414a;strokeOpacity=100;strokeWidth=0.8;rounded=1;arcSize=12;edgeStyle=orthogonalEdgeStyle;startArrow=none;endArrow=block;endFill=1;exitX=0.5;exitY=1.005;exitPerimeter=0;entryX=0.44;entryY=1.208;entryPerimeter=0;lucidId=-FRfs6eNZg9O;entryDx=0;entryDy=0;" edge="1" parent="WIyWlLk6GJQsqaUBKTNV-1" source="U6saIIwCPVE9olRDu_qW-234" target="U6saIIwCPVE9olRDu_qW-190">
          <mxGeometry width="100" height="100" relative="1" as="geometry">
            <Array as="points">
              <mxPoint x="-360" y="-310" />
              <mxPoint x="77" y="-310" />
            </Array>
          </mxGeometry>
        </mxCell>
        <mxCell id="U6saIIwCPVE9olRDu_qW-240" value="" style="html=1;jettySize=18;whiteSpace=wrap;fontSize=13;strokeColor=#3a414a;strokeOpacity=100;strokeWidth=0.8;rounded=1;arcSize=12;edgeStyle=orthogonalEdgeStyle;startArrow=none;endArrow=block;endFill=1;exitX=-0.004;exitY=0.5;exitPerimeter=0;entryX=0.27;entryY=-0.005;entryPerimeter=0;lucidId=xGRfUKg5ZWSC;" edge="1" parent="WIyWlLk6GJQsqaUBKTNV-1" source="U6saIIwCPVE9olRDu_qW-184" target="U6saIIwCPVE9olRDu_qW-234">
          <mxGeometry width="100" height="100" relative="1" as="geometry">
            <Array as="points">
              <mxPoint x="-495" y="-187" />
              <mxPoint x="-495" y="-555" />
              <mxPoint x="-409" y="-555" />
            </Array>
          </mxGeometry>
        </mxCell>
        <mxCell id="U6saIIwCPVE9olRDu_qW-241" value="" style="html=1;jettySize=18;whiteSpace=wrap;fontSize=13;strokeColor=#3a414a;strokeOpacity=100;strokeWidth=0.8;rounded=1;arcSize=12;edgeStyle=orthogonalEdgeStyle;startArrow=none;endArrow=block;endFill=1;exitX=1.002;exitY=0.5;exitPerimeter=0;entryX=0.5;entryY=1.005;entryPerimeter=0;lucidId=FHRfx8ecFE~~;" edge="1" parent="WIyWlLk6GJQsqaUBKTNV-1" source="U6saIIwCPVE9olRDu_qW-236" target="U6saIIwCPVE9olRDu_qW-189">
          <mxGeometry width="100" height="100" relative="1" as="geometry">
            <Array as="points" />
          </mxGeometry>
        </mxCell>
        <mxCell id="U6saIIwCPVE9olRDu_qW-242" value="" style="html=1;jettySize=18;whiteSpace=wrap;fontSize=13;strokeColor=#3a414a;strokeOpacity=100;strokeWidth=0.8;rounded=1;arcSize=12;edgeStyle=orthogonalEdgeStyle;startArrow=none;endArrow=block;endFill=1;exitX=0.79;exitY=-0.005;exitPerimeter=0;entryX=1.002;entryY=0.5;entryPerimeter=0;lucidId=OJRfrrCLcwyp;" edge="1" parent="WIyWlLk6GJQsqaUBKTNV-1" source="U6saIIwCPVE9olRDu_qW-175" target="U6saIIwCPVE9olRDu_qW-215">
          <mxGeometry width="100" height="100" relative="1" as="geometry">
            <Array as="points">
              <mxPoint x="-125" y="-570" />
              <mxPoint x="1523" y="-570" />
              <mxPoint x="1523" y="-135" />
              <mxPoint x="824" y="-135" />
              <mxPoint x="824" y="-161" />
            </Array>
          </mxGeometry>
        </mxCell>
        <mxCell id="ftR3uuFMRVhOYxYMTQK5-15" value="" style="endArrow=classic;html=1;rounded=0;exitX=0;exitY=0.5;exitDx=0;exitDy=0;entryX=0;entryY=0.5;entryDx=0;entryDy=0;" edge="1" parent="WIyWlLk6GJQsqaUBKTNV-1" source="U6saIIwCPVE9olRDu_qW-222" target="U6saIIwCPVE9olRDu_qW-219">
          <mxGeometry relative="1" as="geometry">
            <mxPoint x="-513" y="630" as="sourcePoint" />
            <mxPoint x="-660" y="690" as="targetPoint" />
            <Array as="points">
              <mxPoint x="-700" y="700" />
              <mxPoint x="-700" y="420" />
            </Array>
          </mxGeometry>
        </mxCell>
        <mxCell id="ftR3uuFMRVhOYxYMTQK5-17" value="&lt;font style=&quot;font-size: 12px;&quot;&gt;&lt;b&gt;No&lt;/b&gt;&lt;/font&gt;" style="edgeLabel;html=1;align=center;verticalAlign=middle;resizable=0;points=[];" connectable="0" vertex="1" parent="ftR3uuFMRVhOYxYMTQK5-15">
          <mxGeometry x="-0.0727" y="-1" relative="1" as="geometry">
            <mxPoint x="-1" y="-30" as="offset" />
          </mxGeometry>
        </mxCell>
        <mxCell id="ftR3uuFMRVhOYxYMTQK5-21" value="End" style="html=1;overflow=block;blockSpacing=1;whiteSpace=wrap;fontSize=16.7;fontColor=#3a414a;spacing=3.8;strokeColor=#3a414a;strokeOpacity=100;rounded=1;absoluteArcSize=1;arcSize=9;strokeWidth=0.8;lucidId=AVRf4MA~rnxc;" vertex="1" parent="WIyWlLk6GJQsqaUBKTNV-1">
          <mxGeometry x="-593" y="1270" width="120" height="60" as="geometry" />
        </mxCell>
        <mxCell id="ftR3uuFMRVhOYxYMTQK5-28" value="" style="endArrow=classic;html=1;rounded=0;entryX=0;entryY=0.5;entryDx=0;entryDy=0;exitX=0.5;exitY=1;exitDx=0;exitDy=0;" edge="1" parent="WIyWlLk6GJQsqaUBKTNV-1" source="U6saIIwCPVE9olRDu_qW-79" target="U6saIIwCPVE9olRDu_qW-77">
          <mxGeometry relative="1" as="geometry">
            <mxPoint x="-310" y="1510" as="sourcePoint" />
            <mxPoint x="-240" y="1500" as="targetPoint" />
            <Array as="points">
              <mxPoint x="-300" y="1510" />
            </Array>
          </mxGeometry>
        </mxCell>
        <mxCell id="ftR3uuFMRVhOYxYMTQK5-29" value="&lt;font style=&quot;font-size: 12px;&quot;&gt;&lt;b&gt;Yes&lt;/b&gt;&lt;/font&gt;" style="edgeLabel;resizable=0;html=1;align=center;verticalAlign=middle;" connectable="0" vertex="1" parent="ftR3uuFMRVhOYxYMTQK5-28">
          <mxGeometry relative="1" as="geometry" />
        </mxCell>
        <mxCell id="ftR3uuFMRVhOYxYMTQK5-31" value="Logout" style="html=1;overflow=block;blockSpacing=1;whiteSpace=wrap;rhombus;fontSize=16.7;fontColor=#3a414a;spacing=3.8;strokeColor=#3a414a;strokeOpacity=100;rounded=1;absoluteArcSize=1;arcSize=9;strokeWidth=0.8;lucidId=mYRfYtZ8mxZb;" vertex="1" parent="WIyWlLk6GJQsqaUBKTNV-1">
          <mxGeometry x="250" y="1300" width="120" height="90" as="geometry" />
        </mxCell>
        <mxCell id="ftR3uuFMRVhOYxYMTQK5-36" style="edgeStyle=orthogonalEdgeStyle;rounded=0;orthogonalLoop=1;jettySize=auto;html=1;exitX=0.5;exitY=1;exitDx=0;exitDy=0;entryX=0;entryY=0.75;entryDx=0;entryDy=0;" edge="1" parent="WIyWlLk6GJQsqaUBKTNV-1" source="ftR3uuFMRVhOYxYMTQK5-32" target="U6saIIwCPVE9olRDu_qW-129">
          <mxGeometry relative="1" as="geometry">
            <mxPoint x="887.666666666667" y="1490" as="targetPoint" />
          </mxGeometry>
        </mxCell>
        <mxCell id="ftR3uuFMRVhOYxYMTQK5-32" value="Logout" style="html=1;overflow=block;blockSpacing=1;whiteSpace=wrap;rhombus;fontSize=16.7;fontColor=#3a414a;spacing=3.8;strokeColor=#3a414a;strokeOpacity=100;rounded=1;absoluteArcSize=1;arcSize=9;strokeWidth=0.8;lucidId=mYRfYtZ8mxZb;" vertex="1" parent="WIyWlLk6GJQsqaUBKTNV-1">
          <mxGeometry x="827" y="1322" width="120" height="90" as="geometry" />
        </mxCell>
        <mxCell id="ftR3uuFMRVhOYxYMTQK5-34" value="" style="endArrow=classic;html=1;rounded=0;exitX=0.5;exitY=0;exitDx=0;exitDy=0;entryX=0;entryY=0.75;entryDx=0;entryDy=0;" edge="1" parent="WIyWlLk6GJQsqaUBKTNV-1" source="ftR3uuFMRVhOYxYMTQK5-32" target="ftR3uuFMRVhOYxYMTQK5-45">
          <mxGeometry relative="1" as="geometry">
            <mxPoint x="570" y="1150" as="sourcePoint" />
            <mxPoint x="800" y="560" as="targetPoint" />
            <Array as="points">
              <mxPoint x="800" y="1320" />
              <mxPoint x="800" y="560" />
            </Array>
          </mxGeometry>
        </mxCell>
        <mxCell id="ftR3uuFMRVhOYxYMTQK5-35" value="&lt;font style=&quot;font-size: 12px;&quot;&gt;&lt;b&gt;NO&lt;/b&gt;&lt;/font&gt;" style="edgeLabel;resizable=0;html=1;align=center;verticalAlign=middle;" connectable="0" vertex="1" parent="ftR3uuFMRVhOYxYMTQK5-34">
          <mxGeometry relative="1" as="geometry" />
        </mxCell>
        <mxCell id="ftR3uuFMRVhOYxYMTQK5-44" value="Yes" style="text;html=1;resizable=0;labelBackgroundColor=default;align=center;verticalAlign=middle;fontStyle=1;fontColor=#333333;fontSize=13.3;" vertex="1" parent="WIyWlLk6GJQsqaUBKTNV-1">
          <mxGeometry x="1085" y="1428.92" as="geometry">
            <mxPoint x="-133" y="63" as="offset" />
          </mxGeometry>
        </mxCell>
        <mxCell id="ftR3uuFMRVhOYxYMTQK5-46" style="edgeStyle=orthogonalEdgeStyle;rounded=0;orthogonalLoop=1;jettySize=auto;html=1;exitX=0.5;exitY=1;exitDx=0;exitDy=0;entryX=0.5;entryY=0;entryDx=0;entryDy=0;" edge="1" parent="WIyWlLk6GJQsqaUBKTNV-1" source="ftR3uuFMRVhOYxYMTQK5-45" target="U6saIIwCPVE9olRDu_qW-104">
          <mxGeometry relative="1" as="geometry" />
        </mxCell>
        <mxCell id="ftR3uuFMRVhOYxYMTQK5-45" value="Student&lt;br&gt;Dashboard" style="html=1;overflow=block;blockSpacing=1;whiteSpace=wrap;fontSize=16.7;fontColor=#3a414a;spacing=9;strokeColor=#3a414a;strokeOpacity=100;rounded=1;absoluteArcSize=1;arcSize=9;strokeWidth=0.8;lucidId=j0RfezFQ1N2I;" vertex="1" parent="WIyWlLk6GJQsqaUBKTNV-1">
          <mxGeometry x="1040" y="495" width="120" height="90" as="geometry" />
        </mxCell>
        <mxCell id="ftR3uuFMRVhOYxYMTQK5-63" style="edgeStyle=orthogonalEdgeStyle;rounded=0;orthogonalLoop=1;jettySize=auto;html=1;exitX=0;exitY=0.5;exitDx=0;exitDy=0;entryX=0;entryY=0.75;entryDx=0;entryDy=0;" edge="1" parent="WIyWlLk6GJQsqaUBKTNV-1" source="ftR3uuFMRVhOYxYMTQK5-47" target="ftR3uuFMRVhOYxYMTQK5-55">
          <mxGeometry relative="1" as="geometry">
            <mxPoint x="1570" y="580" as="targetPoint" />
          </mxGeometry>
        </mxCell>
        <mxCell id="ftR3uuFMRVhOYxYMTQK5-64" value="&lt;font style=&quot;font-size: 12px;&quot;&gt;&lt;b&gt;NO&lt;/b&gt;&lt;/font&gt;" style="edgeLabel;html=1;align=center;verticalAlign=middle;resizable=0;points=[];" connectable="0" vertex="1" parent="ftR3uuFMRVhOYxYMTQK5-63">
          <mxGeometry x="0.0353" y="-2" relative="1" as="geometry">
            <mxPoint y="-1" as="offset" />
          </mxGeometry>
        </mxCell>
        <mxCell id="ftR3uuFMRVhOYxYMTQK5-47" value="Logout" style="html=1;overflow=block;blockSpacing=1;whiteSpace=wrap;rhombus;fontSize=16.7;fontColor=#3a414a;spacing=3.8;strokeColor=#3a414a;strokeOpacity=100;rounded=1;absoluteArcSize=1;arcSize=9;strokeWidth=0.8;lucidId=mYRfYtZ8mxZb;" vertex="1" parent="WIyWlLk6GJQsqaUBKTNV-1">
          <mxGeometry x="1595" y="1709" width="120" height="90" as="geometry" />
        </mxCell>
        <mxCell id="ftR3uuFMRVhOYxYMTQK5-49" style="edgeStyle=orthogonalEdgeStyle;rounded=0;orthogonalLoop=1;jettySize=auto;html=1;exitX=0.5;exitY=1;exitDx=0;exitDy=0;entryX=0.5;entryY=0;entryDx=0;entryDy=0;" edge="1" parent="WIyWlLk6GJQsqaUBKTNV-1" source="ftR3uuFMRVhOYxYMTQK5-48" target="U6saIIwCPVE9olRDu_qW-6">
          <mxGeometry relative="1" as="geometry" />
        </mxCell>
        <mxCell id="ftR3uuFMRVhOYxYMTQK5-48" value="Faculty&amp;nbsp;&lt;br&gt;Dashboard" style="html=1;overflow=block;blockSpacing=1;whiteSpace=wrap;fontSize=16.7;fontColor=#3a414a;spacing=9;strokeColor=#3a414a;strokeOpacity=100;rounded=1;absoluteArcSize=1;arcSize=9;strokeWidth=0.8;lucidId=j0RfezFQ1N2I;" vertex="1" parent="WIyWlLk6GJQsqaUBKTNV-1">
          <mxGeometry x="421" y="510" width="120" height="90" as="geometry" />
        </mxCell>
        <mxCell id="ftR3uuFMRVhOYxYMTQK5-50" style="edgeStyle=orthogonalEdgeStyle;rounded=0;orthogonalLoop=1;jettySize=auto;html=1;exitX=0.5;exitY=1;exitDx=0;exitDy=0;entryX=0;entryY=0.5;entryDx=0;entryDy=0;" edge="1" parent="WIyWlLk6GJQsqaUBKTNV-1" source="ftR3uuFMRVhOYxYMTQK5-31" target="U6saIIwCPVE9olRDu_qW-22">
          <mxGeometry relative="1" as="geometry">
            <mxPoint x="323" y="1503" as="targetPoint" />
            <mxPoint x="165" y="1420" as="sourcePoint" />
          </mxGeometry>
        </mxCell>
        <mxCell id="ftR3uuFMRVhOYxYMTQK5-51" value="&lt;font style=&quot;font-size: 12px;&quot;&gt;&lt;b&gt;YES&lt;/b&gt;&lt;/font&gt;" style="edgeLabel;html=1;align=center;verticalAlign=middle;resizable=0;points=[];" connectable="0" vertex="1" parent="ftR3uuFMRVhOYxYMTQK5-50">
          <mxGeometry x="0.0082" relative="1" as="geometry">
            <mxPoint x="1" as="offset" />
          </mxGeometry>
        </mxCell>
        <mxCell id="ftR3uuFMRVhOYxYMTQK5-52" value="" style="endArrow=classic;html=1;rounded=0;exitX=0.5;exitY=0;exitDx=0;exitDy=0;" edge="1" parent="WIyWlLk6GJQsqaUBKTNV-1">
          <mxGeometry relative="1" as="geometry">
            <mxPoint x="312" y="1300" as="sourcePoint" />
            <mxPoint x="420" y="580" as="targetPoint" />
            <Array as="points">
              <mxPoint x="312" y="580" />
            </Array>
          </mxGeometry>
        </mxCell>
        <mxCell id="ftR3uuFMRVhOYxYMTQK5-53" value="&lt;font style=&quot;font-size: 12px;&quot;&gt;&lt;b&gt;NO&lt;/b&gt;&lt;/font&gt;" style="edgeLabel;resizable=0;html=1;align=center;verticalAlign=middle;" connectable="0" vertex="1" parent="ftR3uuFMRVhOYxYMTQK5-52">
          <mxGeometry relative="1" as="geometry" />
        </mxCell>
        <mxCell id="ftR3uuFMRVhOYxYMTQK5-56" style="edgeStyle=orthogonalEdgeStyle;rounded=0;orthogonalLoop=1;jettySize=auto;html=1;exitX=0.5;exitY=1;exitDx=0;exitDy=0;entryX=0.5;entryY=0;entryDx=0;entryDy=0;" edge="1" parent="WIyWlLk6GJQsqaUBKTNV-1" source="ftR3uuFMRVhOYxYMTQK5-55" target="U6saIIwCPVE9olRDu_qW-146">
          <mxGeometry relative="1" as="geometry" />
        </mxCell>
        <mxCell id="ftR3uuFMRVhOYxYMTQK5-55" value="Company&lt;br&gt;Dashboard" style="html=1;overflow=block;blockSpacing=1;whiteSpace=wrap;fontSize=16.7;fontColor=#3a414a;spacing=9;strokeColor=#3a414a;strokeOpacity=100;rounded=1;absoluteArcSize=1;arcSize=9;strokeWidth=0.8;lucidId=j0RfezFQ1N2I;" vertex="1" parent="WIyWlLk6GJQsqaUBKTNV-1">
          <mxGeometry x="1765" y="510" width="120" height="90" as="geometry" />
        </mxCell>
        <mxCell id="ftR3uuFMRVhOYxYMTQK5-58" style="edgeStyle=orthogonalEdgeStyle;rounded=0;orthogonalLoop=1;jettySize=auto;html=1;exitX=0.5;exitY=1;exitDx=0;exitDy=0;entryX=0;entryY=0.5;entryDx=0;entryDy=0;" edge="1" parent="WIyWlLk6GJQsqaUBKTNV-1" source="ftR3uuFMRVhOYxYMTQK5-47" target="U6saIIwCPVE9olRDu_qW-167">
          <mxGeometry relative="1" as="geometry">
            <mxPoint x="1714.4299999999998" y="1933" as="targetPoint" />
            <mxPoint x="1556.4299999999998" y="1850" as="sourcePoint" />
          </mxGeometry>
        </mxCell>
        <mxCell id="ftR3uuFMRVhOYxYMTQK5-62" value="&lt;font style=&quot;font-size: 12px;&quot;&gt;&lt;b&gt;Yes&lt;/b&gt;&lt;/font&gt;" style="edgeLabel;html=1;align=center;verticalAlign=middle;resizable=0;points=[];" connectable="0" vertex="1" parent="ftR3uuFMRVhOYxYMTQK5-58">
          <mxGeometry x="0.2143" y="-2" relative="1" as="geometry">
            <mxPoint as="offset" />
          </mxGeometry>
        </mxCell>
        <mxCell id="diPJtw0lAN3Ccme1B5fm-0" value="Text" style="text;html=1;align=center;verticalAlign=middle;resizable=0;points=[];autosize=1;strokeColor=none;fillColor=none;" vertex="1" parent="WIyWlLk6GJQsqaUBKTNV-1">
          <mxGeometry x="-855" y="278" width="50" height="30" as="geometry" />
        </mxCell>
        <mxCell id="diPJtw0lAN3Ccme1B5fm-1" value="&lt;span style=&quot;color: rgb(0, 0, 0); font-family: Helvetica; font-size: 12px; font-style: normal; font-variant-ligatures: normal; font-variant-caps: normal; font-weight: 400; letter-spacing: normal; orphans: 2; text-align: center; text-indent: 0px; text-transform: none; widows: 2; word-spacing: 0px; -webkit-text-stroke-width: 0px; background-color: rgb(251, 251, 251); text-decoration-thickness: initial; text-decoration-style: initial; text-decoration-color: initial; float: none; display: inline !important;&quot;&gt;Text&lt;/span&gt;" style="text;whiteSpace=wrap;html=1;" vertex="1" parent="WIyWlLk6GJQsqaUBKTNV-1">
          <mxGeometry x="2290" y="281" width="60" height="40" as="geometry" />
        </mxCell>
        <mxCell id="diPJtw0lAN3Ccme1B5fm-2" value="&lt;span style=&quot;color: rgb(0, 0, 0); font-family: Helvetica; font-size: 12px; font-style: normal; font-variant-ligatures: normal; font-variant-caps: normal; font-weight: 400; letter-spacing: normal; orphans: 2; text-align: center; text-indent: 0px; text-transform: none; widows: 2; word-spacing: 0px; -webkit-text-stroke-width: 0px; background-color: rgb(251, 251, 251); text-decoration-thickness: initial; text-decoration-style: initial; text-decoration-color: initial; float: none; display: inline !important;&quot;&gt;Text&lt;/span&gt;" style="text;whiteSpace=wrap;html=1;" vertex="1" parent="WIyWlLk6GJQsqaUBKTNV-1">
          <mxGeometry x="410" y="2090" width="60" height="40" as="geometry" />
        </mxCell>
      </root>
    </mxGraphModel>
  </diagram>
</mxfile>
